<svg xmlns="http://www.w3.org/2000/svg" width="18" height="20" viewBox="0 0 18 20">
    <g fill="none" fill-rule="evenodd">
        <g fill-rule="nonzero">
            <g>
                <g>
                    <g>
                        <path fill="#FDBF00" d="M17.576 16.792v3.083H0v-3.083c0-4.757 3.8-8.644 8.524-8.784 4.707-.213 9.052 3.672 9.052 8.784z" transform="translate(-835 -476) translate(765 240) translate(50 219) translate(20 17)"/>
                        <path fill="#FF9100" d="M17.879 16.79v3.083H9V8.002c4.706-.091 8.879 3.781 8.879 8.789z" transform="translate(-835 -476) translate(765 240) translate(50 219) translate(20 17)"/>
                        <path fill="#F6E1BE" d="M14.164 5.474c0 3.055-2.522 5.564-5.64 5.471-2.936-.091-5.296-2.511-5.296-5.471S5.588.094 8.524.003c3.106-.093 5.64 2.406 5.64 5.47z" transform="translate(-835 -476) translate(765 240) translate(50 219) translate(20 17)"/>
                        <path fill="#F1CEA0" d="M14.164 5.474c0 3.014-2.448 5.472-5.465 5.474V0c3.017.003 5.465 2.46 5.465 5.474z" transform="translate(-835 -476) translate(765 240) translate(50 219) translate(20 17)"/>
                    </g>
                </g>
            </g>
        </g>
    </g>
</svg>
