<svg xmlns="http://www.w3.org/2000/svg" xmlns:xlink="http://www.w3.org/1999/xlink" width="296" height="160" viewBox="0 0 296 160">
    <defs>
        <linearGradient id="aem90vo1xc" x1="41.356%" x2="59.977%" y1="3.895%" y2="62.283%">
            <stop offset="0%" stop-color="#FFC40D"/>
            <stop offset="100%" stop-color="#FFB300"/>
        </linearGradient>
        <linearGradient id="lx7qb3a7dd" x1="42.074%" x2="59.149%" y1="3.895%" y2="62.283%">
            <stop offset="0%" stop-color="#FFC40D"/>
            <stop offset="100%" stop-color="#FFB300"/>
        </linearGradient>
        <linearGradient id="k8gtw80see" x1="41.168%" x2="60.194%" y1="3.895%" y2="62.283%">
            <stop offset="0%" stop-color="#FFC40D"/>
            <stop offset="100%" stop-color="#FFB300"/>
        </linearGradient>
        <path id="rkhac0xzma" d="M0 0H296V160H0z"/>
    </defs>
    <g fill="none" fill-rule="evenodd">
        <g>
            <g>
                <g>
                    <g transform="translate(-1074 -175) translate(140 120) translate(0 55) translate(934)">
                        <mask id="mr0pisqkyb" fill="#fff">
                            <use xlink:href="#rkhac0xzma"/>
                        </mask>
                        <g mask="url(#mr0pisqkyb)">
                            <g>
                                <path fill="#FF9600" d="M427.48 295.38s-39.952-2.634-76.446-44.49c-36.495-41.857-15.533-59.523-80.796-75.393-44.301-10.806-83.16 13.29-117.095-4.295-55.2-28.6-21.968-92.29-58.179-123.889C53.944 11.481 1.452 26.831 1.452 26.831L0 4.268 423.246 0l4.235 295.38z" transform="rotate(135 291.885 158.438)"/>
                                <path fill="#FF9600" d="M470.81 290.275c-44.295-10.805-83.153 13.29-117.095-4.295-55.221-28.607-21.962-92.29-58.173-123.902-41.032-35.792-93.525-20.476-93.525-20.476l-1.446-22.556 423.24-4.24c-58.492 127.559-109.493 186.049-153.002 175.469z" transform="rotate(135 291.885 158.438)"/>
                                <path fill="#FFB200" d="M543.78 355.103s-72.039 26.354-108.533-15.502c-36.495-41.857-32.639-80.52-84.753-93.107-41.675-10.076-74.53 11.919-108.147-6.268-37.818-20.469-26.959-72.59-63.17-104.189-41.033-35.792-81.707-40.952-81.707-40.952l-1.452-22.562 411.428 16.201 36.334 266.379z" transform="rotate(135 291.885 158.438)"/>
                                <path fill="#FF9600" d="M606.327 323.15s-39.952-2.634-76.447-44.49c-36.495-41.857-15.553-59.524-80.79-75.387-44.3-10.805-83.159 13.29-117.094-4.295C276.79 170.37 310.021 106.7 273.81 75.083 232.778 39.277 180.312 54.6 180.312 54.6l-1.452-22.563 423.246-4.268 4.22 295.38z" transform="rotate(135 291.885 158.438)"/>
                                <path fill="#FFC723" d="M500.098 300.952s-39.959-2.634-76.447-44.49c-36.487-41.857-32.638-80.52-84.76-93.121-41.667-10.083-74.522 11.92-108.14-6.267-37.817-20.47-26.958-72.59-63.176-104.19C126.542 17.073 74.05 32.417 74.05 32.417L72.604 9.853l423.24-4.282 4.254 295.38z" transform="rotate(135 291.885 158.438)"/>
                            </g>
                        </g>
                        <g fill-rule="nonzero" mask="url(#mr0pisqkyb)">
                            <g>
                                <path fill="url(#aem90vo1xc)" d="M85.563 84.817C84.277 54.387 65.858 20.183 43.27 7.135c-.83-.477-1.66-.85-2.489-1.265 1.413-.7 2.884-1.277 4.397-1.721.664.331 1.307.622 1.95.995 22.402 12.923 40.718 46.63 42.336 76.872-1.163 1.111-2.475 2.054-3.9 2.8z" transform="rotate(75 97.423 154.255)"/>
                                <path fill="#FFA400" d="M37.69 15.474c-1.496-.858-3.049-1.613-4.647-2.26 1.802-3.155 4.493-5.709 7.737-7.344.83.415 1.66.788 2.49 1.265 22.588 13.048 41.007 47.252 42.293 77.682-3.123 1.71-6.623 2.615-10.184 2.634-.021-27.754-16.885-59.967-37.69-71.977z" transform="rotate(75 97.423 154.255)"/>
                                <path fill="#FFCE22" d="M33.748 32.006c11.512 6.638 21.22 22.506 24.331 38.312.653 3.3.993 6.654 1.017 10.018v2.282l-1.618-1.058c-2.669-1.804-5.012-4.048-6.928-6.638-1.079-12.736-8.795-26.612-18.191-32.026-1.386-4.053-2.087-8.308-2.075-12.591 1.196.48 2.354 1.048 3.464 1.7z" transform="rotate(75 97.423 154.255)"/>
                                <path fill="url(#lx7qb3a7dd)" d="M11.222 53.184c2.178.745 4.494 1 6.783.747.456 0 .912-.187 1.369-.29.186 12.134 6.222 26.965 15.37 32.877-.208.207-.415.414-.602.643-.681.761-1.266 1.604-1.742 2.51-.783 1.483-1.276 3.102-1.452 4.77-.124 1.037-.207 2.074-.249 3.008C18.4 88.343 8.836 69.073 8.504 52.043c.875.452 1.783.833 2.718 1.141z" transform="rotate(75 97.423 154.255)"/>
                                <path fill="#393835" d="M25.534 50.86C27.07 62.97 32.517 74.245 41.05 82.97c-2.342.646-4.483 1.873-6.223 3.568-9.065-5.994-15.184-20.742-15.37-32.877 2.242-.48 4.361-1.419 6.222-2.759l-.145-.041z" transform="rotate(75 97.423 154.255)"/>
                                <path fill="url(#k8gtw80see)" d="M30.201 22.962c.22-3.419 1.19-6.748 2.842-9.749 1.598.648 3.15 1.403 4.646 2.261 20.743 12.01 37.669 44.223 37.69 71.977-1.966.02-3.929-.182-5.85-.602-3.728-.8-7.3-2.2-10.578-4.148v-2.282c.029-3.387-.263-6.77-.872-10.101C55.03 54.512 45.323 38.644 33.81 32.006c-1.164-.66-2.377-1.229-3.63-1.701V27.38v-1.307c-.165-1.182-.062-2.095.021-3.11z" transform="rotate(75 97.423 154.255)"/>
                                <path fill="#FFA400" d="M1.245 46.67c1.374 1.402 2.882 2.666 4.5 3.776.878.602 1.8 1.136 2.76 1.597.331 17.03 9.894 36.3 22.194 45.447-.139 2.497 0 5.002.415 7.468.564 3.264 1.808 6.374 3.65 9.127l-.352-.25C15.474 100.748.56 71.314 0 45.366c.145.103.54.58 1.245 1.306z" transform="rotate(75 97.423 154.255)"/>
                                <path fill="#FB4633" d="M17.735 3.879c7.156-5.061 16.822-5.331 27.442.27-1.516.478-2.988 1.089-4.397 1.825-8.629-4.418-16.553-4.895-23.045-2.095z" transform="rotate(75 97.423 154.255)"/>
                                <path fill="#FFE4A6" d="M17.735 3.879c7.156-5.061 16.822-5.331 27.442.27-1.516.478-2.988 1.089-4.397 1.825-8.629-4.418-16.553-4.895-23.045-2.095z" transform="rotate(75 97.423 154.255)"/>
                                <path fill="#ED3224" d="M17.735 3.879c6.492-2.8 14.52-2.323 23.045 2.074-3.244 1.635-5.935 4.189-7.737 7.343-10.371-4.294-19.436-2.074-25.43 4.958-3.144 4.013-5.278 8.722-6.223 13.731C2.82 17.486 8.92 7.675 17.735 3.88z" transform="rotate(75 97.423 154.255)"/>
                                <path fill="#FFD36C" d="M17.735 3.879c6.492-2.8 14.52-2.323 23.045 2.074-3.244 1.635-5.935 4.189-7.737 7.343-10.371-4.294-19.436-2.074-25.43 4.958-3.144 4.013-5.278 8.722-6.223 13.731C2.82 17.486 8.92 7.675 17.735 3.88z" transform="rotate(75 97.423 154.255)"/>
                                <path fill="#FF5A4D" d="M10.371 39.183c2.697-6.949 7.945-10.62 14.52-10.123 1.801.154 3.57.573 5.248 1.245-.012 4.283.689 8.538 2.074 12.59-2.022-1.185-4.314-1.835-6.658-1.887-.975 0-6.223.705-6.223 12.093v.519c-.456 0-.913.228-1.369.29-2.287.26-4.603.012-6.783-.726-.934-.308-1.843-.69-2.717-1.14v-.913c-.098-4.066.549-8.115 1.908-11.948z" transform="rotate(75 97.423 154.255)"/>
                                <path fill="#FFF3D7" d="M10.371 39.183c2.697-6.949 7.945-10.62 14.52-10.123 1.801.154 3.57.573 5.248 1.245-.012 4.283.689 8.538 2.074 12.59-2.022-1.185-4.314-1.835-6.658-1.887-.975 0-6.223.705-6.223 12.093v.519c-.456 0-.913.228-1.369.29-2.287.26-4.603.012-6.783-.726-.934-.308-1.843-.69-2.717-1.14v-.913c-.098-4.066.549-8.115 1.908-11.948z" transform="rotate(75 97.423 154.255)"/>
                                <path fill="#ED3224" d="M25.534 50.86c-1.861 1.34-3.98 2.28-6.223 2.76V53.1c0-11.388 5.207-12.134 6.223-12.093-.227 1.532-.344 3.078-.352 4.626.003 1.748.12 3.494.352 5.227z" transform="rotate(75 97.423 154.255)"/>
                                <path fill="#666564" d="M25.534 50.86c-1.861 1.34-3.98 2.28-6.223 2.76V53.1c0-11.388 5.207-12.134 6.223-12.093-.227 1.532-.344 3.078-.352 4.626.003 1.748.12 3.494.352 5.227z" transform="rotate(75 97.423 154.255)"/>
                                <path fill="#FB4633" d="M1.286 31.902c.976-5.019 3.146-9.729 6.327-13.731 5.994-7.136 15.059-9.252 25.43-4.958-1.652 3.001-2.622 6.33-2.842 9.75 0 1.015-.186 2.073-.186 3.11V30.305c-1.638-.667-3.364-1.093-5.124-1.265-6.492-.498-11.74 3.173-14.52 10.122-1.416 3.822-2.119 7.872-2.074 11.948v.913c-.959-.462-1.881-.996-2.759-1.598-1.546-1.113-2.983-2.37-4.293-3.754-.706-.726-1.1-1.203-1.204-1.307v-1.39c-.03-4.057.388-8.106 1.245-12.072z" transform="rotate(75 97.423 154.255)"/>
                                <path fill="#FFE4A6" d="M1.286 31.902c.976-5.019 3.146-9.729 6.327-13.731 5.994-7.136 15.059-9.252 25.43-4.958-1.652 3.001-2.622 6.33-2.842 9.75 0 1.015-.186 2.073-.186 3.11V30.305c-1.638-.667-3.364-1.093-5.124-1.265-6.492-.498-11.74 3.173-14.52 10.122-1.416 3.822-2.119 7.872-2.074 11.948v.913c-.959-.462-1.881-.996-2.759-1.598-1.546-1.113-2.983-2.37-4.293-3.754-.706-.726-1.1-1.203-1.204-1.307v-1.39c-.03-4.057.388-8.106 1.245-12.072z" transform="rotate(75 97.423 154.255)"/>
                                <path fill="#ED3224" d="M41.05 82.97c1.828 1.804 3.869 3.378 6.077 4.688.353.187.664.27 1.017.436-.332.602-3.755 2.862-10.372 0-1.03-.445-2.016-.987-2.945-1.618 1.74-1.695 3.88-2.923 6.223-3.568v.063z" transform="rotate(75 97.423 154.255)"/>
                                <path fill="#666564" d="M41.05 82.97c1.828 1.804 3.869 3.378 6.077 4.688.353.187.664.27 1.017.436-.332.602-3.755 2.862-10.372 0-1.03-.445-2.016-.987-2.945-1.618 1.74-1.695 3.88-2.923 6.223-3.568v.063z" transform="rotate(75 97.423 154.255)"/>
                                <path fill="#FB4633" d="M71.438 122.133c8.732-5.331 14.25-17.175 14.25-33.956 0-1.12 0-2.24-.125-3.36 1.43-.78 2.744-1.757 3.9-2.904 0 1.43.166 2.883.166 4.293 0 19.229-7.198 32.027-18.191 35.927z" transform="rotate(75 97.423 154.255)"/>
                                <path fill="#FFE4A6" d="M71.438 122.133c8.732-5.331 14.25-17.175 14.25-33.956 0-1.12 0-2.24-.125-3.36 1.43-.78 2.744-1.757 3.9-2.904 0 1.43.166 2.883.166 4.293 0 19.229-7.198 32.027-18.191 35.927z" transform="rotate(75 97.423 154.255)"/>
                                <path fill="#ED3224" d="M37.69 115.972c4.097 2.47 8.713 3.954 13.482 4.335 14.147.934 24.207-11.491 24.207-32.898 3.56-.019 7.06-.924 10.184-2.634 0 1.12.125 2.24.125 3.36 0 16.781-5.518 28.625-14.25 33.956-7.488 4.626-17.341 4.44-28.169-1.784-2.939-1.723-5.716-3.709-8.297-5.932l-.207-.29c.975.663 1.95 1.327 2.924 1.887z" transform="rotate(75 97.423 154.255)"/>
                                <path fill="#FFD36C" d="M37.69 115.972c4.097 2.47 8.713 3.954 13.482 4.335 14.147.934 24.207-11.491 24.207-32.898 3.56-.019 7.06-.924 10.184-2.634 0 1.12.125 2.24.125 3.36 0 16.781-5.518 28.625-14.25 33.956-7.488 4.626-17.341 4.44-28.169-1.784-2.939-1.723-5.716-3.709-8.297-5.932l-.207-.29c.975.663 1.95 1.327 2.924 1.887z" transform="rotate(75 97.423 154.255)"/>
                                <path fill="#FF5A4D" d="M30.948 94.42c.176-1.668.669-3.287 1.452-4.77.474-.913 1.06-1.763 1.742-2.53.187-.23.394-.437.602-.644.929.631 1.915 1.173 2.945 1.618 6.7 2.8 10.123.54 10.372 0 1.643-3.125 2.47-6.613 2.406-10.143 0-.975 0-2.074-.145-2.987 1.916 2.59 4.259 4.834 6.928 6.638l1.618 1.057c-.374 7.136-2.51 12.633-5.891 15.993-4.626 4.646-11.554 5.31-19.312.83-1.053-.635-2.071-1.328-3.049-2.075.125-.954.208-1.99.332-2.987z" transform="rotate(75 97.423 154.255)"/>
                                <path fill="#FFF3D7" d="M30.948 94.42c.176-1.668.669-3.287 1.452-4.77.474-.913 1.06-1.763 1.742-2.53.187-.23.394-.437.602-.644.929.631 1.915 1.173 2.945 1.618 6.7 2.8 10.123.54 10.372 0 1.643-3.125 2.47-6.613 2.406-10.143 0-.975 0-2.074-.145-2.987 1.916 2.59 4.259 4.834 6.928 6.638l1.618 1.057c-.374 7.136-2.51 12.633-5.891 15.993-4.626 4.646-11.554 5.31-19.312.83-1.053-.635-2.071-1.328-3.049-2.075.125-.954.208-1.99.332-2.987z" transform="rotate(75 97.423 154.255)"/>
                                <path fill="#FB4633" d="M33.748 99.44c7.758 4.48 14.686 3.817 19.312-.83 3.38-3.36 5.517-8.857 5.89-15.992 3.278 1.948 6.851 3.349 10.58 4.148 1.92.42 3.883.622 5.849.602 0 21.406-10.06 33.831-24.207 32.898-4.776-.407-9.392-1.92-13.483-4.418-.975-.56-1.95-1.224-2.924-1.867-1.83-2.722-3.073-5.795-3.651-9.023-.415-2.466-.554-4.97-.415-7.468.98.705 1.999 1.356 3.05 1.95z" transform="rotate(75 97.423 154.255)"/>
                                <path fill="#FFE4A6" d="M33.748 99.44c7.758 4.48 14.686 3.817 19.312-.83 3.38-3.36 5.517-8.857 5.89-15.992 3.278 1.948 6.851 3.349 10.58 4.148 1.92.42 3.883.622 5.849.602 0 21.406-10.06 33.831-24.207 32.898-4.776-.407-9.392-1.92-13.483-4.418-.975-.56-1.95-1.224-2.924-1.867-1.83-2.722-3.073-5.795-3.651-9.023-.415-2.466-.554-4.97-.415-7.468.98.705 1.999 1.356 3.05 1.95z" transform="rotate(75 97.423 154.255)"/>
                            </g>
                        </g>
                    </g>
                </g>
            </g>
        </g>
    </g>
</svg>