<svg xmlns="http://www.w3.org/2000/svg" xmlns:xlink="http://www.w3.org/1999/xlink" width="556px" height="326px">
<path fill-rule="evenodd" opacity="0.502" fill="rgb(253, 250, 246)" d="M515.944,325.070 C512.919,325.336 509.885,325.480 506.837,325.480 C503.937,325.480 501.026,325.350 498.104,325.070 L498.104,325.070 C482.803,323.603 467.189,318.043 451.184,305.703 C429.976,289.355 420.597,265.688 412.130,239.701 C418.488,239.171 424.906,238.820 431.371,238.820 C448.020,238.820 464.982,241.146 482.079,248.725 C514.250,262.994 538.548,280.828 555.715,296.394 L555.715,316.162 C542.630,320.279 529.395,323.885 515.944,325.070 ZM171.675,108.238 C150.938,92.250 141.509,69.270 133.186,43.966 C168.368,46.422 197.514,51.255 226.674,87.838 C236.515,100.179 243.357,113.028 248.780,125.890 C241.691,127.216 234.547,128.023 227.337,128.023 C209.246,128.023 190.744,122.942 171.675,108.238 Z"/>
<path fill-rule="evenodd" opacity="0.502" fill="rgb(246, 243, 236)" d="M184.000,0.000 L0.000,0.000 C12.209,14.534 28.214,26.415 48.711,32.330 C81.171,41.696 108.648,42.253 133.186,43.966 C168.368,46.422 197.514,51.255 226.674,87.838 C236.515,100.179 243.357,113.028 248.780,125.890 C265.178,164.777 268.606,203.772 302.750,229.138 C319.080,241.264 336.635,244.701 355.087,244.701 C367.157,244.701 379.609,243.230 392.354,241.760 C398.874,241.008 405.470,240.256 412.130,239.701 C418.488,239.171 424.906,238.820 431.371,238.820 C448.020,238.820 464.982,241.146 482.079,248.725 C514.250,262.994 538.548,280.828 555.715,296.394 L555.715,202.414 C553.869,202.354 552.029,202.325 550.190,202.325 C536.958,202.325 523.922,203.795 511.181,205.264 C498.437,206.734 485.989,208.203 473.920,208.203 C455.470,208.203 437.910,204.766 421.582,192.641 C391.031,169.945 385.075,136.336 372.414,101.660 C367.530,102.326 362.615,102.705 357.672,102.705 C339.580,102.705 321.074,97.625 302.005,82.924 C278.422,64.744 269.463,37.510 260.123,8.105 C237.570,6.127 213.086,6.298 184.000,0.000 "/>
<path fill-rule="evenodd" opacity="0.502" fill="rgb(238, 234, 226)" d="M260.123,8.105 C269.463,37.510 278.422,64.744 302.005,82.924 C321.074,97.625 339.580,102.705 357.672,102.705 C362.615,102.705 367.530,102.326 372.414,101.660 C366.245,84.763 358.484,67.613 345.509,51.349 C318.611,17.620 291.730,10.877 260.123,8.105 "/>
<path fill-rule="evenodd" opacity="0.502" fill="rgb(238, 234, 226)" d="M556.000,-0.000 L184.000,-0.000 C213.071,6.287 238.012,6.242 260.554,8.217 C292.144,10.984 319.012,17.715 345.896,51.389 C358.864,67.627 366.622,84.748 372.788,101.617 C385.442,136.235 391.395,169.789 421.930,192.448 C438.251,204.553 455.801,207.985 474.243,207.985 C486.306,207.985 498.747,206.518 511.485,205.050 C524.219,203.584 537.249,202.116 550.474,202.116 C552.312,202.116 554.151,202.145 555.996,202.205 L555.996,-0.003 L556.000,-0.000 Z"/>
</svg>