<svg xmlns="http://www.w3.org/2000/svg" width="50" height="50" viewBox="0 0 50 50">
    <g fill="none" fill-rule="evenodd">
        <g fill-rule="nonzero">
            <g>
                <g>
                    <g transform="translate(-258 -415) translate(140 120) translate(0 245) translate(118 50)">
                        <circle cx="25.03" cy="24.996" r="24.877" fill="#FDB902"/>
                        <path fill="#FD8C02" d="M4.446 24.996c0-11.368 9.215-20.584 20.584-20.584 6.56 0 12.405 3.07 16.174 7.852.872.331 1.518.777 1.877 1.344h4.071C43.553 6.63 36.751 1.577 28.69.388h.003c-.194-.029-.388-.054-.583-.079-.076-.01-.153-.018-.23-.027-.215-.025-.432-.047-.65-.066l-.185-.015c-.234-.02-.468-.035-.704-.048L26.292.15v.001C25.874.131 25.453.12 25.03.12 11.29.119.152 11.257.152 24.996c0 13.74 11.138 24.877 24.878 24.877 1.244 0 2.467-.092 3.662-.269-5.108-.753-9.71-3.06-13.312-6.423C8.875 39.722 4.446 32.877 4.446 24.996z"/>
                        <circle cx="25.03" cy="24.996" r="21.341" fill="#FFDF40"/>
                        <path fill="#FFBE40" d="M9.876 24.996c0-10.736 7.927-19.619 18.247-21.118-1.01-.146-2.043-.224-3.093-.224-11.787 0-21.342 9.555-21.342 21.342 0 11.786 9.555 21.341 21.342 21.341 1.05 0 2.083-.077 3.093-.224-10.32-1.499-18.247-10.382-18.247-21.117z"/>
                        <path fill="#FD8C02" d="M37.342 23.607h-9.466c-.345-.738-.956-1.325-1.71-1.64V11.294c0-.662-.537-1.2-1.2-1.2-.662 0-1.2.538-1.2 1.2v10.62c-1.252.463-2.146 1.668-2.146 3.082 0 1.813 1.47 3.283 3.283 3.283.086 0 .171-.004.255-.01l.04-.004c.084-.007.166-.018.248-.031l.022-.004c.175-.03.345-.074.509-.131.885-.307 1.599-.98 1.958-1.84h9.407c.732 0 1.326-.594 1.326-1.326 0-.733-.594-1.326-1.326-1.326z"/>
                        <circle cx="24.903" cy="24.996" r="3.283" fill="#FD8C02"/>
                        <g fill="#FFF">
                            <path d="M2.113 20.895H.724c-.347 0-.631-.284-.631-.631 0-.347.284-.631.631-.631h1.39c.346 0 .63.284.63.63 0 .348-.284.632-.63.632zM39.745 20.895h-1.39c-.346 0-.63-.284-.63-.631 0-.347.284-.631.63-.631h1.39c.347 0 .631.284.631.63 0 .348-.284.632-.631.632zM19.603 2.143V.753c0-.347.284-.63.632-.63.347 0 .63.283.63.63v1.39c0 .347-.283.631-.63.631-.348 0-.632-.284-.632-.631zM19.603 39.774v-1.389c0-.347.284-.631.632-.631.347 0 .63.284.63.631v1.39c0 .347-.283.63-.63.63-.348 0-.632-.283-.632-.63zM6.974 7.897l-.982-.982c-.246-.246-.246-.648 0-.893.246-.246.647-.246.893 0l.982.982c.246.245.246.647 0 .893-.245.245-.647.245-.893 0zM33.584 34.506l-.982-.982c-.246-.245-.246-.647 0-.893.245-.245.647-.245.893 0l.982.982c.245.246.245.648 0 .893-.246.246-.647.246-.893 0zM7.867 33.524l-.982.982c-.246.246-.647.246-.893 0-.246-.245-.246-.647 0-.893l.982-.982c.246-.245.648-.245.893 0 .246.246.246.648 0 .893z" transform="translate(4.732 4.732)"/>
                        </g>
                    </g>
                </g>
            </g>
        </g>
    </g>
</svg>
