<svg xmlns="http://www.w3.org/2000/svg" width="20" height="20" viewBox="0 0 20 20">
    <g fill="none" fill-rule="evenodd">
        <g fill-rule="nonzero">
            <g>
                <g>
                    <g>
                        <g>
                            <path fill="#FD3018" d="M17.071 2.929C15.182 1.04 12.671 0 10 0 7.329 0 4.818 1.04 2.929 2.929 1.04 4.818 0 7.329 0 10c0 2.671 1.04 5.182 2.929 7.071C4.818 18.96 7.329 20 10 20c2.671 0 5.182-1.04 7.071-2.929C18.96 15.182 20 12.671 20 10c0-2.671-1.04-5.182-2.929-7.071z" transform="translate(-170 -271) translate(140 120) translate(0 55) translate(30 90) translate(0 6)"/>
                            <path fill="#E61E14" d="M20 10c0-2.671-1.04-5.182-2.929-7.071C15.182 1.04 12.671 0 10 0v20c2.671 0 5.182-1.04 7.071-2.929C18.96 15.182 20 12.671 20 10z" transform="translate(-170 -271) translate(140 120) translate(0 55) translate(30 90) translate(0 6)"/>
                            <path fill="#FFF" d="M10.829 10l3.58-3.58c.228-.228.228-.6 0-.828-.23-.23-.6-.23-.83 0L10 9.172l-3.58-3.58c-.229-.23-.6-.23-.828 0-.23.229-.23.6 0 .828L9.172 10l-3.58 3.58c-.23.229-.23.6 0 .828.114.115.264.172.414.172.15 0 .3-.057.414-.172l3.58-3.58 3.58 3.58c.114.115.264.172.414.172.15 0 .3-.057.414-.172.23-.228.23-.6 0-.828L10.828 10z" transform="translate(-170 -271) translate(140 120) translate(0 55) translate(30 90) translate(0 6)"/>
                            <path fill="#FAEAEA" d="M10.829 10l3.58-3.58c.228-.228.228-.6 0-.828-.23-.23-.6-.23-.83 0L10 9.172v1.657l3.58 3.58c.114.114.264.171.414.171.15 0 .3-.057.414-.172.23-.228.23-.6 0-.828L10.828 10z" transform="translate(-170 -271) translate(140 120) translate(0 55) translate(30 90) translate(0 6)"/>
                        </g>
                    </g>
                </g>
            </g>
        </g>
    </g>
</svg>
