<svg xmlns="http://www.w3.org/2000/svg" width="16" height="16" viewBox="0 0 16 16">
    <g fill="none" fill-rule="evenodd">
        <g>
            <g>
                <g>
                    <g transform="translate(-810 -32) translate(0 14) translate(798 6) translate(12 12)">
                        <circle cx="8" cy="8" r="8" fill="#FFE14D" fill-rule="nonzero"/>
                        <path fill="#FB3" fill-rule="nonzero" d="M16 8c0-4.411-3.589-8-8-8v16c4.411 0 8-3.589 8-8z"/>
                        <path fill="#FDB902" fill-rule="nonzero" d="M8 14.094c-3.36 0-6.094-2.734-6.094-6.094C1.906 4.64 4.64 1.906 8 1.906c3.36 0 6.094 2.734 6.094 6.094 0 3.36-2.734 6.094-6.094 6.094z"/>
                        <path fill="#FD8C02" fill-rule="nonzero" d="M14.094 8c0-3.36-2.734-6.094-6.094-6.094v12.188c3.36 0 6.094-2.734 6.094-6.094z"/>
                        <path fill="#DB7900" d="M7.838 4.5v.847h.404V4.5h.778v.847H12v1.57L9.555 9.35H12v1.255H9.02v.895h-.777l-.001-.895h-.404v.895h-.777l-.001-.895h-.939l3.952-3.892H4.016V5.348l3.044-.001V4.5h.778zM6.575 9.256L5.198 10.59H4V9.256h2.575zM8.76 7.278l-1.506 1.46H4.016v-1.46h4.745z"/>
                    </g>
                </g>
            </g>
        </g>
    </g>
</svg>
