<svg data-v-73df8966="" xmlns="http://www.w3.org/2000/svg" height="20" viewBox="0 0 20 20" width="20"><path data-v-73df8966="" fill="#FFB300" fill-rule="nonzero" d="M1.731 7.19L6.82 2.106c.114-.113.299-.113.412 0l1.331 1.276-5.32 5.32-1.51-1.512z" transform="translate(5.333 5.333)"></path><path data-v-73df8966="" fill="#DE9C00" fill-rule="nonzero" d="M7.229 2.104L1.937 7.397 3.241 8.701 8.562 3.383 7.231 2.106z" transform="translate(5.333 5.333)"></path><path data-v-73df8966="" fill="#FFC107" fill-rule="nonzero" d="M1.937 7.397L0.633 6.092 5.927 0.802 7.231 2.106z" transform="translate(5.333 5.333)"></path><path data-v-73df8966="" fill="#FDA300" fill-rule="nonzero" d="M8.124 3.702c-.078 0-.152-.031-.206-.086L5.72 1.42c-.113-.113-.114-.297 0-.41l.566-.571C6.56.166 6.918.018 7.3.018h.003c.382 0 .74.15 1.008.42l.585.585c.27.267.42.625.42 1.007.001.383-.148.744-.42 1.016l-.566.57c-.055.055-.129.086-.206.086z" transform="translate(5.333 5.333)"></path><path data-v-73df8966="" fill="#FFE082" fill-rule="nonzero" d="M.291 9.333c-.076 0-.15-.03-.206-.085-.069-.069-.098-.167-.08-.263l.548-2.744c.021-.105.098-.19.201-.222.104-.031.215-.003.29.073L3.241 8.29c.076.076.104.188.073.29-.03.103-.116.18-.221.202l-2.744.547-.058.005z" transform="translate(5.333 5.333)"></path><path data-v-73df8966="" fill="#FFB200" d="M8.603.73L6.817 2.516l1.1 1.1c.055.055.129.086.206.086.078 0 .152-.031.207-.086l.566-.57c.272-.272.421-.633.42-1.016 0-.382-.15-.74-.42-1.007L8.603.73z" transform="translate(5.333 5.333)"></path><path data-v-73df8966="" fill="#DEC371" fill-rule="nonzero" d="M2.142 7.19L.085 9.249c.055.055.13.085.206.085l.057-.005 2.744-.548c.105-.02.19-.098.222-.2.03-.104.003-.215-.073-.291L2.142 7.19z" transform="translate(5.333 5.333)"></path></svg>