<svg xmlns="http://www.w3.org/2000/svg" width="18" height="18" viewBox="0 0 18 18">
    <g fill="none" fill-rule="evenodd">
        <g fill-rule="nonzero">
            <g>
                <g>
                    <g>
                        <path fill="#FF7D47" d="M17.719 6.283V17.72H.28V6.283C5.19 2.715 3.225 4.151 8.686.103 8.78.036 8.89 0 9 0c.055 0 .11.008.163.026l.04.014.038.018.037.021.036.025c5.352 3.965 3.395 2.539 8.405 6.18z" transform="translate(-835 -1090) translate(765 909) translate(50 163) translate(20 18)"/>
                        <path fill="#FF7D47" d="M17.719 6.283V17.72H9V0c.055 0 .11.008.163.026l.04.014.038.018.037.021.036.025c5.352 3.965 3.395 2.539 8.405 6.18z" transform="translate(-835 -1090) translate(765 909) translate(50 163) translate(20 18)"/>
                        <path fill="#F9F8F6" d="M14.027.527v12.41c0 .292-.236.528-.527.528h-9c-.291 0-.527-.236-.527-.527V.527C3.973.235 4.209 0 4.5 0h9c.291 0 .527.236.527.527z" transform="translate(-835 -1090) translate(765 909) translate(50 163) translate(20 18)"/>
                        <path fill="#EDEBE7" d="M14.027.527v12.41c0 .292-.236.528-.527.528H9V0h4.5c.291 0 .527.236.527.527z" transform="translate(-835 -1090) translate(765 909) translate(50 163) translate(20 18)"/>
                        <path fill="#FFE278" d="M8.161 11.668L.838 6.324c-.16-.117-.373-.134-.55-.044-.177.09-.288.272-.288.47v10.723c0 .292.238.527.527.527.11 0 .22-.035.312-.102l7.324-5.379c.286-.21.287-.64-.002-.85z" transform="translate(-835 -1090) translate(765 909) translate(50 163) translate(20 18)"/>
                        <path fill="#FFB454" d="M17.712 6.28c-.177-.09-.39-.073-.55.044l-7.323 5.344c-.287.21-.29.64-.002.851l7.324 5.379c.092.067.201.102.312.102.29 0 .527-.235.527-.527V6.75c0-.198-.111-.38-.288-.47z" transform="translate(-835 -1090) translate(765 909) translate(50 163) translate(20 18)"/>
                        <path fill="#FF9D21" d="M.026 17.637c.071.216.274.363.501.363h16.946c.227 0 .43-.147.5-.363.072-.217-.004-.454-.188-.59l-8.473-6.222c-.185-.136-.439-.136-.624 0L.215 17.048c-.184.135-.26.372-.189.589z" transform="translate(-835 -1090) translate(765 909) translate(50 163) translate(20 18)"/>
                        <path fill="#FFB454" d="M.026 17.637c.071.216.274.363.501.363H9v-7.277c-.11 0-.22.034-.312.102L.215 17.048c-.184.135-.26.372-.189.589z" transform="translate(-835 -1090) translate(765 909) translate(50 163) translate(20 18)"/>
                    </g>
                </g>
            </g>
        </g>
    </g>
</svg>
