<svg xmlns="http://www.w3.org/2000/svg" width="14" height="14" viewBox="0 0 14 14">
    <g fill="none" fill-rule="evenodd">
        <g fill-rule="nonzero">
            <g>
                <g>
                    <g>
                        <path fill="#41479B" d="M10.547 13.5H2.953C1.323 13.5 0 12.178 0 10.547V2.953C0 1.323 1.322 0 2.953 0h7.594c1.63 0 2.953 1.322 2.953 2.953v7.594c0 1.63-1.322 2.953-2.953 2.953z" transform="translate(-956 -1739) translate(100 1709) translate(802 29) translate(54 1)"/>
                        <g fill="#F5F5F5">
                            <path d="M13.5 10.547v-.649l-2.094-1.372H13.5v-.71H7.816V13.5h.71V9.188l4.507 2.953c.16-.249.283-.523.363-.815M.199 11.613c.072.186.162.362.268.528l4.507-2.953V13.5h.71V7.816H0v.71h2.094L0 9.898v.649c0 .113.007.225.02.336M0 3.054v.548l2.094 1.372H0v.71h5.684V0h-.71v4.312L.467 1.36c-.175.273-.307.576-.385.9M13.298 1.877c-.072-.182-.16-.356-.265-.518L8.526 4.312V0h-.71v5.684H13.5v-.71h-2.094L13.5 3.602v-.649c0-.117-.007-.233-.02-.347" transform="translate(-956 -1739) translate(100 1709) translate(802 29) translate(54 1)"/>
                        </g>
                        <g fill="#FF4B55">
                            <path d="M7.816 0L5.684 0 5.684 5.684 0 5.684 0 7.816 5.684 7.816 5.684 13.5 7.816 13.5 7.816 7.816 13.5 7.816 13.5 5.684 7.816 5.684z" transform="translate(-956 -1739) translate(100 1709) translate(802 29) translate(54 1)"/>
                            <path d="M3.65 8.526L.02 10.883c.028.254.09.5.179.73l4.755-3.087H3.65zM9.083 8.526l4.313 2.8c.068-.248.104-.51.104-.78l-3.112-2.02H9.083zM4.263 4.974L.083 2.26C.028 2.482 0 2.714 0 2.953v.1l2.958 1.92h1.305zM9.831 4.974l3.649-2.368c-.03-.255-.092-.5-.182-.73L8.526 4.975h1.305z" transform="translate(-956 -1739) translate(100 1709) translate(802 29) translate(54 1)"/>
                        </g>
                    </g>
                </g>
            </g>
        </g>
    </g>
</svg>