<svg xmlns="http://www.w3.org/2000/svg" width="56" height="50" viewBox="0 0 56 50">
    <g fill="none" fill-rule="evenodd">
        <g fill-rule="nonzero">
            <g>
                <g>
                    <g>
                        <g>
                            <g>
                                <path fill="#F6D4B0" d="M43.674 24.216l-.117-1.6 1.014-1.013c4.484-4.484 4.484-11.815 0-16.26-4.484-4.485-11.777-4.485-16.26 0l-1.015 1.013c-.507-.078-1.053-.117-1.599-.117l1.755-1.755c4.952-4.952 13.024-4.991 17.977 0 4.952 4.953 4.952 13.025 0 17.977l-1.755 1.755zM22.656 6.396L21.642 5.38C17.158.897 9.827.897 5.382 5.381c-4.524 4.446-4.524 11.777 0 16.261l1.013 1.014c-.078.507-.117 1.053-.117 1.599L4.523 22.5c-4.952-4.952-4.99-13.024 0-17.977 4.953-4.952 13.025-4.952 17.977 0l1.755 1.755c-.546 0-1.092.04-1.6.117zM6.239 25.697l.117 1.598-1.014 1.014C.858 32.795.858 40.126 5.303 44.57c4.485 4.485 11.777 4.485 16.261 0l1.014-1.013c.507.078 1.053.117 1.599.117l-1.755 1.755c-4.952 4.952-13.024 4.991-17.977.039-4.952-4.952-4.952-13.024.04-17.977l1.754-1.793zm21.018 17.82l1.014 1.014c4.484 4.484 11.815 4.484 16.26 0 4.485-4.484 4.485-11.777-.038-16.26l-1.014-1.015c.078-.507.117-1.053.117-1.599l1.755 1.755c4.952 4.952 4.991 13.024.039 17.977-4.952 4.952-13.024 4.952-17.977-.04l-1.754-1.754c.545.039 1.091 0 1.598-.078z" transform="translate(-887 -415) translate(140 120) translate(0 245) translate(630) translate(117 50)"/>
                                <path fill="#FD8C02" d="M24.957 0C11.19 0 0 11.191 0 24.957c0 13.765 11.152 24.956 24.957 24.956 13.765 0 24.956-11.191 24.956-24.956C49.913 11.19 38.722 0 24.957 0zm0 37.435c-6.902 0-12.479-5.576-12.479-12.478 0-6.903 5.577-12.479 12.479-12.479 6.902 0 12.478 5.576 12.478 12.479 0 6.902-5.576 12.478-12.478 12.478z" transform="translate(-887 -415) translate(140 120) translate(0 245) translate(630) translate(117 50)"/>
                                <path fill="#FFDF40" d="M24.957 9.476c-8.54 0-15.481 6.94-15.481 15.48s6.94 15.482 15.48 15.482 15.482-6.942 15.482-15.481c0-8.54-6.942-15.481-15.481-15.481zm0 27.959c-6.902 0-12.479-5.576-12.479-12.478 0-6.903 5.577-12.479 12.479-12.479 6.902 0 12.478 5.576 12.478 12.479 0 6.902-5.576 12.478-12.478 12.478z" transform="translate(-887 -415) translate(140 120) translate(0 245) translate(630) translate(117 50)"/>
                                <path fill="#FFE6CC" d="M19.146 35.992c-2.261-1.17-4.094-3.042-5.264-5.264l-9.008 9.047c1.482 1.988 3.237 3.782 5.265 5.264l9.007-9.047zm11.582-22.11c2.262 1.17 4.094 3.003 5.264 5.264l9.047-9.007c-1.482-1.99-3.276-3.783-5.264-5.265l-9.047 9.008zM4.874 10.14l9.008 9.007c1.17-2.261 3.003-4.094 5.264-5.264L10.14 4.874C8.149 6.356 6.356 8.15 4.874 10.14zM45.04 39.775l-9.008-9.008c-1.17 2.262-3.002 4.094-5.264 5.264l9.008 9.008c1.988-1.482 3.782-3.276 5.264-5.264z" transform="translate(-887 -415) translate(140 120) translate(0 245) translate(630) translate(117 50)"/>
                                <path fill="#FFFCEB" d="M32.95 11.698l-2.183 2.184c2.262 1.17 4.094 3.003 5.264 5.264l2.184-2.183c-1.326-2.145-3.12-3.978-5.265-5.265zm-19.068 19.03l-2.184 2.222c1.287 2.145 3.12 3.939 5.265 5.265l2.183-2.184c-2.222-1.209-4.055-3.041-5.264-5.303zm16.885 5.303l2.183 2.184c2.145-1.287 3.939-3.12 5.265-5.265l-2.184-2.183c-1.209 2.223-3.041 4.055-5.264 5.264zm-11.582-22.11l-2.222-2.223c-2.145 1.326-3.939 3.12-5.265 5.265l2.184 2.183c1.209-2.222 3.042-4.055 5.303-5.225z" transform="translate(-887 -415) translate(140 120) translate(0 245) translate(630) translate(117 50)"/>
                            </g>
                            <g>
                                <path fill="#FDB902" d="M24 5.83v11.586c0 .458-.37.828-.828.828H.828c-.457 0-.828-.37-.828-.828V.866C0 .408.37.037.828.037h22.344c.457 0 .828.37.828.828V5.83z" transform="translate(-887 -415) translate(140 120) translate(0 245) translate(630) translate(117 50) translate(32 16)"/>
                                <path fill="#FFDF40" d="M23.793.323L12.8 9.712c-.462.389-1.136.389-1.598 0L.207.322C.362.143.589.038.827.038h22.345c.24 0 .466.105.621.286z" transform="translate(-887 -415) translate(140 120) translate(0 245) translate(630) translate(117 50) translate(32 16)"/>
                                <path fill="#FFA73C" d="M23.706 18.045c-.148.129-.338.2-.534.2H.828c-.196 0-.386-.071-.534-.2l9.165-9.819 1.742 1.486c.462.389 1.136.389 1.598 0l1.738-1.486 9.17 9.82z" transform="translate(-887 -415) translate(140 120) translate(0 245) translate(630) translate(117 50) translate(32 16)"/>
                            </g>
                        </g>
                    </g>
                </g>
            </g>
        </g>
    </g>
</svg>
