<svg xmlns="http://www.w3.org/2000/svg" width="19" height="18" viewBox="0 0 19 18">
    <g fill="none" fill-rule="evenodd">
        <g fill-rule="nonzero">
            <g>
                <g>
                    <g>
                        <g>
                            <g>
                                <path fill="#FFE6CC" d="M12.006 12.006l1.708-2.588-1.708-.44c-.224-.672-.604-1.306-1.141-1.843-.53-.53-1.156-.917-1.843-1.14L9 6.016l-2.08-.082-.926.06c-.686.223-1.312.61-1.842 1.14L1.387 9.9c-1.85 1.85-1.85 4.856 0 6.706 1.902 1.901 4.908 1.805 6.713 0l2.765-2.758c.537-.537.917-1.171 1.14-1.842zm-5.77 2.735c-.836.835-2.171.813-2.984 0-.82-.82-.82-2.163 0-2.983l2.742-2.736 1.5 1.484L9 11.983l-2.765 2.758z" transform="translate(-580 -1083) translate(140 120) translate(0 869) translate(420 46) translate(0 30) translate(20 18)"/>
                                <path fill="#FC9" d="M10.865 13.848L8.1 16.606c-1.805 1.805-4.81 1.901-6.713 0l1.865-1.865c.813.813 2.148.835 2.983 0L9 11.983l-1.507-1.477 3.372-3.37c.537.536.917 1.17 1.14 1.841l1.709.44-1.708 2.589c-.224.67-.604 1.305-1.141 1.842z" transform="translate(-580 -1083) translate(140 120) translate(0 869) translate(420 46) translate(0 30) translate(20 18)"/>
                                <path fill="#FDBF00" d="M16.613 1.394c-1.85-1.85-4.856-1.857-6.713 0L7.135 4.152c-.537.537-.917 1.17-1.14 1.842-.329.985-.329 2.044 0 3.028.223.671.603 1.306 1.14 1.842.522.523 1.149.91 1.843 1.142L9 11.983c.82-.82.82-2.163 0-2.983-.82-.82-.82-2.163 0-2.983l2.765-2.758c.403-.403.925-.612 1.492-.612.014-.015.141-.007.171.008.403 0 .932.216 1.32.604.82.82.82 2.163 0 2.983l-2.742 2.735c.328.985.328 2.044 0 3.029.678-.232 1.32-.62 1.842-1.142l2.765-2.757c1.85-1.85 1.85-4.863 0-6.713z" transform="translate(-580 -1083) translate(140 120) translate(0 869) translate(420 46) translate(0 30) translate(20 18)"/>
                                <g fill="#FF9100">
                                    <path d="M1.898 10.612l-.022.022c-.694-.23-1.32-.619-1.842-1.14l1.864-1.865c.82.82.82 2.163 0 2.983zM9.511 6.736L6.746 9.493c-.522.522-1.163.91-1.842 1.142.328-.985.328-2.044 0-3.029l2.743-2.735c.82-.82.82-2.163 0-2.983L9.51.023c1.85 1.85 1.85 4.863 0 6.713z" transform="translate(-580 -1083) translate(140 120) translate(0 869) translate(420 46) translate(0 30) translate(20 18) translate(7.102 1.371)"/>
                                </g>
                            </g>
                        </g>
                    </g>
                </g>
            </g>
        </g>
    </g>
</svg>
