<?xml version="1.0" encoding="UTF-8" standalone="no"?>
<!DOCTYPE svg PUBLIC "-//W3C//DTD SVG 1.1//EN" "http://www.w3.org/Graphics/SVG/1.1/DTD/svg11.dtd">
<svg version="1.1" xmlns="http://www.w3.org/2000/svg" xmlns:xlink="http://www.w3.org/1999/xlink" preserveAspectRatio="xMidYMid meet" viewBox="9 9 24 24" width="20" height="20"><defs><path d="M27.5 10C28.88 10 30 11.12 30 12.5C30 14 30 26 30 27.5C30 28.88 28.88 30 27.5 30C26 30 14 30 12.5 30C11.12 30 10 28.88 10 27.5C10 26 10 14 10 12.5C10 11.12 11.12 10 12.5 10C15.5 10 26 10 27.5 10Z" id="aqP1eVsb8"></path><path d="M19.38 25.65L19.38 22.5L10 22.5L10 17.5L19.38 17.5L19.38 14.35L26.64 20L19.38 25.65Z" id="e37yoEbS"></path></defs><g><g><use xlink:href="#aqP1eVsb8" opacity="1" fill="#e3e2df" fill-opacity="1"></use></g><g><use xlink:href="#e37yoEbS" opacity="1" fill="#c1bfb6" fill-opacity="1"></use><g><use xlink:href="#e37yoEbS" opacity="1" fill-opacity="0" stroke="#000000" stroke-width="1" stroke-opacity="0"></use></g></g></g></svg>