<svg xmlns="http://www.w3.org/2000/svg" width="24" height="26" viewBox="0 0 24 26" class="light"><path fill="#393835" d="M23.8 10.526C22.847 4.666 17.986.415 12.312.002c-.574-.042-.927.62-.562 1.065 1.455 1.774 2.32 4.05 2.297 6.527-.054 5.583-4.668 10.099-10.251 10.038-1.014-.011-1.992-.171-2.914-.46-.551-.171-1.036.4-.782.92 2.376 4.84 7.71 7.775 13.307 6.864 6.855-1.115 11.508-7.575 10.393-14.43z" transform="translate(-661 -1265) translate(337 447) translate(324 818)" class="path-3"></path><path fill="#888681" d="M1.42 20.212c1.052.259 2.158.403 3.297.414 7.29.073 13.314-5.325 13.385-12 .031-2.962-3.154-8.03-3.179-8.15-.842-.248-1.716-.409-2.61-.474-.575-.042-.928.62-.563 1.065 1.455 1.774 2.32 4.05 2.297 6.527-.054 5.583-4.668 10.099-10.251 10.038-1.014-.011-1.992-.171-2.914-.46-.551-.171-1.036.4-.782.92.371.755.814 1.464 1.32 2.12z" opacity=".5" transform="translate(-661 -1265) translate(337 447) translate(324 818)" class="path-4"></path><path fill="#393835" d="M9.62 10.565c-.42-.273-.767-.614-1.033-1.027-.124-.193-.405-.196-.538-.01-.27.38-.616.714-1.029 1.008-.19.136-.182.425.016.55.412.257.757.591 1.026 1.012.124.194.409.195.536.003.26-.392.61-.715 1.025-.988.199-.131.197-.418-.002-.548zM3.339 4.47c-.421-.274-.767-.615-1.033-1.028-.125-.193-.406-.196-.539-.01-.27.38-.615.714-1.029 1.008-.19.136-.182.425.016.549.412.258.758.592 1.027 1.013.124.194.408.195.535.003.26-.392.61-.715 1.026-.989.198-.13.196-.418-.003-.547z" transform="translate(-661 -1265) translate(337 447) translate(324 818)" class="path-5"></path><path fill="#888681" d="M7.952 5.645c-.212 0-.384-.172-.384-.384V3.825c0-.212.172-.384.384-.384.212 0 .384.172.384.384V5.26c0 .212-.172.384-.384.384z" transform="translate(-661 -1265) translate(337 447) translate(324 818)" class="path-6"></path><path fill="#888681" d="M8.67 4.927H7.234c-.212 0-.384-.172-.384-.384 0-.212.172-.384.384-.384H8.67c.212 0 .384.172.384.384 0 .212-.172.384-.384.384zM2.269 12.746c-.212 0-.384-.172-.384-.384v-1.436c0-.212.172-.384.384-.384.212 0 .383.172.383.384v1.436c0 .212-.172.384-.383.384z" transform="translate(-661 -1265) translate(337 447) translate(324 818)" class="path-6"></path><path fill="#888681" d="M2.987 12.028H1.55c-.212 0-.384-.172-.384-.384 0-.212.172-.384.384-.384h1.437c.212 0 .384.172.384.384 0 .212-.172.384-.384.384z" transform="translate(-661 -1265) translate(337 447) translate(324 818)" class="path-6"></path></svg>