<svg xmlns="http://www.w3.org/2000/svg" width="26" height="26" viewBox="0 0 26 26" class="dark"><path fill="#A7A7A7" d="M.421 12.319C.163 12.449 0 12.71 0 13c0 .289.163.552.421.681l5.04 2.495V9.824L.42 12.32zM25.579 12.319l-5.04-2.495v6.352l5.04-2.495c.258-.13.421-.392.421-.681 0-.289-.163-.552-.421-.681z"></path><path fill="#A7A7A7" d="M22.34 21.377l-1.764-5.291-4.49 4.49 5.29 1.764c.27.091.574.022.78-.184.204-.204.276-.506.184-.78zM5.424 16.086l-1.764 5.29c-.092.274-.02.576.184.78.205.206.51.275.78.184l5.29-1.764-4.49-4.49zM22.156 3.844c-.204-.203-.506-.276-.78-.184l-5.29 1.764 4.49 4.49 1.764-5.29c.091-.274.02-.576-.184-.78zM4.623 3.66c-.273-.092-.575-.02-.78.184-.203.204-.275.506-.183.78l1.764 5.29 4.49-4.49-5.29-1.764z"></path><path fill="#A7A7A7" d="M13 20.54H9.824l2.495 5.039c.13.258.392.421.681.421.289 0 .552-.163.681-.421l2.495-5.04H13z"></path><path fill="#A7A7A7" d="M13.681 25.579l2.495-5.04H13V26c.289 0 .552-.163.681-.421zM13.681.387C13.551.13 13.276 0 13 0s-.552.13-.681.387L9.824 5.46h6.352L13.68.387z"></path><path fill="#A7A7A7" d="M13.681.387C13.551.13 13.276 0 13 0v5.46h3.176L13.68.387z"></path><circle cx="13" cy="13" r="8.379" fill="#EFEFEF"></circle><path fill="#FFF" d="M21.379 13c0-4.62-3.759-8.379-8.379-8.379V21.38c4.62 0 8.379-3.759 8.379-8.379z"></path></svg>