<svg xmlns="http://www.w3.org/2000/svg" width="18" height="19" viewBox="0 0 18 19">
    <g fill="none" fill-rule="evenodd">
        <g fill-rule="nonzero">
            <g>
                <g>
                    <g>
                        <path fill="#E2783B" d="M17.987 3.961V1.145L16.799.81 9.354 8.256c-.213.213-.213.548 0 .76.472.473.845 1.029 1.089 1.653.03.076.068.13.121.182.077.077.168.122.274.153.183.03.358-.023.488-.153l6.509-6.509c.099-.099.16-.236.152-.38z" transform="translate(-835 -551) translate(765 240) translate(50 293) translate(20 18)"/>
                        <path fill="#FDBF00" d="M17.987.917c0-.152-.053-.282-.152-.38-.054-.054-.107-.092-.175-.115-.054-.023-.107-.03-.16-.038l-4.187-.38c-.274-.031-.517.152-.578.426l-.305 1.552-1.66.413c-.213.045-.38.213-.426.426l-.305 1.553-1.553.304c-.19.038-.35.183-.403.373l-.54 1.698c-2.048-.587-4.278-.016-5.8 1.507-2.307 2.306-2.307 6.066 0 8.373 2.306 2.306 6.066 2.306 8.372 0 .183-.183.723-.8.807-1.02.168-.213.434-.784.442-.822.822-1.766.631-4.332-.883-6.136l7.506-7.506V.917zM4.407 15.578c-.442 0-.853-.182-1.142-.472-.29-.289-.472-.7-.472-1.141-.008-.891.723-1.622 1.613-1.614.45-.008.853.183 1.142.472.29.29.48.693.472 1.142.008.89-.723 1.621-1.614 1.613z" transform="translate(-835 -551) translate(765 240) translate(50 293) translate(20 18)"/>
                        <path fill="#FF9100" d="M17.987.917c0-.152-.053-.282-.152-.38L5.548 12.822c.29.29.48.693.472 1.142.008.89-.723 1.621-1.614 1.613-.441 0-.852-.182-1.141-.472L1.742 16.63c2.307 2.306 6.067 2.306 8.373 0 .183-.183.723-.8.807-1.02.168-.213.434-.784.442-.822.822-1.766.631-4.332-.883-6.136l7.506-7.506V.917z" transform="translate(-835 -551) translate(765 240) translate(50 293) translate(20 18)"/>
                    </g>
                </g>
            </g>
        </g>
    </g>
</svg>
