<svg xmlns="http://www.w3.org/2000/svg" width="52" height="52" viewBox="0 0 52 52">
    <g fill="none" fill-rule="evenodd">
        <g>
            <g>
                <g>
                    <g transform="translate(-194 -229) translate(140 120) translate(0 55) translate(54 54)">
                        <circle cx="26" cy="26" r="26" fill="#F9F8F6"/>
                        <g fill-rule="nonzero">
                            <path fill="#FDB902" d="M18.985 5.995c-.551 0-1-.447-1-.999V2.998c0-.55-.448-1-.998-1h-1.999c-.551 0-.999-.447-.999-.999 0-.551.448-.999 1-.999h1.998c1.652 0 2.997 1.345 2.997 2.998v1.998c0 .552-.447 1-.999 1zM16.987 23.981h-1.999c-.551 0-.999-.447-.999-.999s.448-1 1-1h1.998c.55 0 .999-.448.999-.998v-1.999c0-.551.448-1 1-1 .55 0 .998.449.998 1v1.999c0 1.652-1.345 2.997-2.997 2.997z" transform="translate(16 14)"/>
                            <path fill="#FD8C02" d="M11.241 18.985H8.743c-.688 0-1.249-.56-1.249-1.249v-5.745H4.746c-.658 0-.997-.792-.541-1.267L9.45 5.228c.282-.296.801-.296 1.084 0l5.246 5.496c.454.475.116 1.267-.543 1.267H12.49v5.745c0 .689-.56 1.25-1.249 1.25z" transform="translate(16 14)"/>
                            <path fill="#607D8B" d="M1 5.995c-.552 0-1-.447-1-.999V2.998C0 1.345 1.345 0 2.998 0h1.998c.552 0 1 .448 1 1 0 .55-.448.998-1 .998H2.998c-.55 0-1 .45-1 1v1.998c0 .552-.447 1-.999 1zM4.996 23.981H2.998C1.345 23.981 0 22.636 0 20.984v-1.999c0-.551.448-1 1-1 .55 0 .998.449.998 1v1.999c0 .55.45.999 1 .999h1.998c.552 0 1 .447 1 .999s-.448 1-1 1z" transform="translate(16 14)"/>
                            <path fill="#FDB902" d="M9.992 5.006c-.2 0-.4.074-.541.222l-5.246 5.496c-.456.475-.117 1.267.541 1.267h2.748v5.745c0 .689.56 1.25 1.25 1.25h1.248V5.005z" transform="translate(16 14)"/>
                            <g fill="#FDB902">
                                <path d="M4.996 0H2.998C1.345 0 0 1.345 0 2.998v1.998c0 .552.448 1 1 1 .55 0 .998-.448.998-1V2.998c0-.55.45-1 1-1h1.998c.552 0 1-.447 1-.999 0-.551-.448-.999-1-.999zM1 17.986c-.552 0-1 .448-1 1v1.998c0 1.652 1.345 2.997 2.998 2.997h1.998c.552 0 1-.447 1-.999s-.448-1-1-1H2.998c-.55 0-1-.448-1-.998v-1.999c0-.551-.447-1-.999-1z" transform="translate(16 14)"/>
                            </g>
                        </g>
                    </g>
                </g>
            </g>
        </g>
    </g>
</svg>