<?xml version="1.0" encoding="UTF-8"?>
<svg xmlns="http://www.w3.org/2000/svg" xmlns:xlink="http://www.w3.org/1999/xlink">
  <symbol viewBox="0 0 34 37" id="credit">
    <g fill="none">
      <path fill="#FDB902" d="M30.412 13.368L13.404 30.377a1.969 1.969 0 01-2.783 0L.612 20.368a1.969 1.969 0 010-2.783L17.62.576a1.969 1.969 0 012.783 0l10.009 10.01a1.966 1.966 0 010 2.782z"/>
      <path fill="#FD8C02" d="M30.412 10.585l-1.249-1.25c.685.685.616 1.863-.152 2.632L12.002 28.975c-.768.769-1.946.837-2.63.153l1.249 1.249a1.969 1.969 0 002.783 0l17.008-17.009a1.967 1.967 0 000-2.783z"/>
      <path fill="#FFF" d="M3.883 19.668a.53.53 0 01-.378-.157.531.531 0 010-.755l8.33-8.331a.534.534 0 11.756.755l-8.33 8.332a.536.536 0 01-.378.156zm2.647 2.648a.534.534 0 01-.378-.913l8.33-8.33a.534.534 0 11.757.755l-8.331 8.33a.533.533 0 01-.378.158z"/>
      <path fill="#FFDF40" d="M17.342 4.453L15.676 6.12a1.677 1.677 0 102.372 2.373l1.667-1.666a1.678 1.678 0 00-2.373-2.373z"/>
      <path fill="#FD8C02" d="M32.018 18.391H7.965a1.969 1.969 0 00-1.968 1.968v14.155c0 1.087.88 1.968 1.968 1.968h24.053a1.968 1.968 0 001.968-1.968V20.359c0-1.086-.88-1.968-1.968-1.968z"/>
      <path fill="#FF7100" d="M32.018 18.391h-1.762a1.97 1.97 0 011.969 1.968v14.155a1.969 1.969 0 01-1.969 1.968h1.762a1.968 1.968 0 001.968-1.968V20.359c0-1.086-.88-1.968-1.968-1.968z"/>
      <path fill="#FDB902" d="M5.997 22.838h27.989v3.4H5.997z"/>
      <path fill="#FFF" d="M27.107 33.77c0 .161.131.293.294.293h3.336a.294.294 0 00.293-.294v-2.097a.294.294 0 00-.293-.294H27.4a.294.294 0 00-.294.294v2.097zm-10.057 0c0 .161.13.293.293.293h7.056a.294.294 0 00.293-.294v-2.097a.294.294 0 00-.293-.294h-7.056a.294.294 0 00-.294.294v2.097z"/>
      <path fill="#FFDF40" d="M14.173 34.597h-3.515a.535.535 0 010-1.069h3.515a.536.536 0 010 1.069z"/>
      <path fill="#FFCD5A" d="M32.225 22.838h1.761v3.4h-1.761z"/>
    </g>
  </symbol>

  <symbol viewBox="0 0 48 48" id="btc">
  <path fill="#F7931A" d="M24 48a24 24 0 100-48 24 24 0 000 48z"/>
  <path fill="#fff" fill-rule="evenodd" d="M34 20c0-3-2-5-5-6l1-4-3-1-1 5-2-1 1-4-2-1-1 4h-2l-4-1v3h1l2 2-2 5h0l-1 7h-1-2l-2 3 4 1h2l-1 4 2 1 1-4h2l-1 5h3l1-4c4 1 8 0 9-4 1-3 0-5-2-6 1 0 3-1 3-4zm-6 9c-1 3-5 1-7 1h-1l2-6c2 1 7 2 6 5zm-5-8c1 1 5 2 6-1s-3-3-5-4h-1l-1 5h1z" clip-rule="evenodd"/>
</symbol>

<symbol viewBox="0 0 256 417" id="eth">
  <path fill="#343434" d="M128 0l-3 10v275l3 3 128-76z"/>
  <path fill="#8C8C8C" d="M128 0L0 212l128 76V154z"/>
  <path fill="#3C3C3B" d="M128 312l-2 2v98l2 5 128-180z"/>
  <path fill="#8C8C8C" d="M128 417V312L0 237z"/>
  <path fill="#141414" d="M128 288l128-76-128-58z"/>
  <path fill="#393939" d="M0 212l128 76V154z"/>
</symbol>

<symbol viewBox="0 0 2000 2000" id="tether">
  <path fill="#53ae94" d="M1000 0a1000 1000 0 110 2000 1000 1000 0 010-2000"/>
  <path fill="#fff" d="M1123 867V718h341V491H537v227h341v149c-277 12-485 67-485 133s208 120 485 133v476h246v-476c276-13 483-68 483-133s-207-120-483-133m0 225a2019 2019 0 01-246 0c-245-10-427-53-427-104s182-93 427-104v166a1891 1891 0 00246 0V884c243 11 425 53 425 104s-182 93-425 104"/>
</symbol>


  <symbol viewBox="0 0 34 33" id="purse">
    <g fill="none">
      <path fill="#FFE14D" d="M23.72 10.2a1 1 0 01-.99.867H6.87a1 1 0 01-.99-.868C5.155 4.78 9.386 0 14.8 0c5.407 0 9.645 4.773 8.92 10.2z"/>
      <path fill="#FB3" d="M23.72 10.2a1 1 0 01-.99.867h-7.863V0c5.382.038 9.574 4.801 8.854 10.198z"/>
      <circle cx="14.867" cy="9" r="2" fill="#FB3"/>
      <path fill="#E68A2E" d="M16.867 9c0 1.103-.898 2-2 2V7c1.102 0 2 .897 2 2z"/>
      <path fill="#FDB902" d="M28.467 16.247v8.972a1 1 0 011 1V29.4c0 1.654-1.346 3-3 3H3c-1.654 0-3-1.346-3-3V12.067c0-1.654 1.346-3 3-3h23.467c1.654 0 3 1.346 3 3v3.18a1 1 0 01-1 1z"/>
      <path fill="#FD8C02" d="M28.467 16.247v8.972a1 1 0 011 1V29.4c0 1.654-1.346 3-3 3h-11.6V9.067h11.6c1.654 0 3 1.346 3 3v3.18a1 1 0 01-1 1z"/>
      <path fill="#FFCD5A" d="M31 14.4H20.6c-1.654 0-3 1.346-3 3v6.667c0 1.654 1.346 3 3 3H31c1.654 0 3-1.346 3-3V17.4c0-1.654-1.346-3-3-3z"/>
      <path fill="#FD8C02" d="M24.133 22.667c-1.102 0-2-.898-2-2 0-1.103.898-2 2-2 1.103 0 2 .897 2 2 0 1.102-.897 2-2 2z"/>
    </g>
  </symbol>

  <symbol viewBox="0 0 34 36" id="qiwi">
    <g fill="#FCB316">
      <path d="M33.507 34.384c-.157-.433-.443-.729-.65-1.113-.503-.66-1.094-1.232-1.685-1.804-.207-.069-.296-.266-.493-.345-.128-.167-.335-.256-.503-.384-.335-.256-.7-.473-1.074-.69-.71-.453-1.587-.739-2.454-1.035a29.199 29.199 0 00-2.947-.532c-1.015-.148-2.03-.286-2.798-.69-.444-.128-.77-.374-1.153-.571-.355-.237-.74-.434-1.035-.73-.365-.216-.592-.581-.877-.877-.099-.197-.266-.315-.345-.532-.099-.04-.128-.158-.187-.227-.07-.078-.07-.236-.188-.266-.059.404-.04.887 0 1.301.05.178.07.394.119.572.03.158.177.414.118.532-3.075-.158-5.322-1.133-7.273-2.414-.966-.641-1.794-1.42-2.563-2.257-.335-.463-.7-.907-.995-1.42-.305-.502-.562-1.074-.838-1.606-.453-1.153-.877-2.335-1.034-3.784-.207-1.35-.158-3.075.147-4.326.109-.69.335-1.272.533-1.873.128-.276.266-.552.384-.838.167-.236.256-.561.463-.768.562-1.055 1.4-1.843 2.257-2.602a9.498 9.498 0 013.252-1.567c1.222-.276 2.888-.325 4.208-.04 2.68.552 4.701 1.755 6.396 3.292 1.715 1.508 3.036 3.42 3.942 5.746.936 2.207 1.262 5.647.424 8.15a53.26 53.26 0 00-1.035-.572c-.414-.118-.818-.256-1.3-.305-.582-.01-1.154 0-1.528.187.759-.079 1.37.128 1.843.305.276.109.433.178.65.306.424.246.798.473 1.114.808.897.788 1.537 1.833 1.843 3.213 0 .04.049.03.04-.04.038-.01.058-.039.078-.078.05-.06.108-.119.158-.188.098-.118.197-.236.266-.384a4.97 4.97 0 00.532-.808c.364-.532.64-1.143.956-1.725a18.331 18.331 0 001.261-4.1c.552-3.37-.108-6.563-1.261-8.918-1.183-2.375-2.838-4.277-4.977-5.706C23.14 1.26 20.617.217 17.148.118c-.02-.069-.05.01-.118 0-1.833-.059-3.312.197-4.78.572-.68.227-1.39.424-1.99.73-.69.226-1.243.6-1.873.876-.227.217-.572.325-.808.532-.306.148-.533.385-.838.533-.493.433-1.015.818-1.498 1.261-.473.434-.887.926-1.34 1.38-.07.157-.188.266-.306.384a1.28 1.28 0 01-.305.384c-.05.178-.207.247-.266.424-.129.099-.158.296-.306.385-.128.315-.355.542-.503.837-.177.286-.315.601-.492.877-.276.64-.572 1.262-.799 1.952a13.75 13.75 0 00-.571 2.148c-.148.72-.286 1.656-.266 2.415-.099.275-.02.788 0 1.113 0 .06-.04.079-.04.118 0 .365.099.809.119 1.035.078.838.226 1.616.463 2.296.148.76.463 1.35.69 2.03.345.572.581 1.252.995 1.765.305.6.74 1.074 1.153 1.567.443.473.887.956 1.42 1.34.975.847 2.118 1.527 3.37 2.109 2.335 1.133 5.824 1.872 8.958 1.685.798-.108 1.606-.207 2.335-.384.67-.247 1.45-.394 2.257-.493 1.843-.118 3.44.05 4.859.463 1.439.385 2.68.966 3.755 1.725.571.335 1.044.769 1.527 1.182.493.424.887.947 1.34 1.42.06.177.178.305.267.463.118.128.059.424.344.384.178-.177-.03-.434-.039-.65-.177-.188-.217-.434-.355-.592z"/>
      <path d="M26.352 23.899c-.039 0-.049.03-.078.039-.07.148-.04.384 0 .532.207.424.276.976.729 1.153.217-.069.197-.384.187-.69-.098-.374-.236-.71-.463-.956-.158-.059-.266-.157-.375-.078zm-2.68 1.074c0-.02-.03-.04-.04 0-.374-.05-.502.157-.69.305-.325.858.198 1.695 1.114 1.685.365-.088.592-.325.65-.729-.049-.72-.354-1.182-1.034-1.261z"/>
    </g>
  </symbol>

  <!-- <symbol viewBox="0 0 26 34" id="yandex-dengi">
    <defs>
      <path id="a" d="M.007.107h25.595V33.77H.007z"></path>
    </defs>
    
    <g fill="none" fill-rule="evenodd">
      <path d="M108.99 0C75.5725 0 48.9902 26.962 48.9902 60C48.9902 93.4177 75.9523 120 108.99 120C142.028 120 168.99 93.038 168.99 60C168.99 26.962 142.028 0 108.99 0ZM108.99 82.4051C96.8383 82.4051 86.5852 72.1519 86.5852 60C86.5852 47.8481 96.8383 37.5949 108.99 37.5949C121.142 37.5949 131.395 47.8481 131.395 60C131.016 72.1519 121.142 82.4051 108.99 82.4051Z" fill="#8B3FFD"/>
      <path d="M48.6076 17.4684V104.81H27.3418L0 17.4684H48.6076V17.4684Z" fill="#8B3FFD"/>
    </g>
  </symbol> -->

  <symbol id="yandex-dengi" viewBox="0 0 169 120">
    <path d="M108.99 0c-33.417 0-60 26.962-60 60 0 33.418 26.962 60 60 60s60-26.962 60-60-26.962-60-60-60zm0 82.405c-12.152 0-22.405-10.253-22.405-22.405 0-12.152 10.253-22.405 22.405-22.405 12.152 0 22.405 10.253 22.405 22.405-.379 12.152-10.253 22.405-22.405 22.405zM48.608 17.468v87.342H27.342L0 17.468h48.608z" fill="#8B3FFD"/>
  </symbol>

  <symbol viewBox="0 0 18 18" id="money">
    <g fill="none" fill-rule="evenodd">
      <circle cx="9" cy="9" r="9" fill="#FFE14D" fill-rule="nonzero"/>
      <path fill="#FB3" fill-rule="nonzero" d="M18 9c0-4.963-4.037-9-9-9v18c4.963 0 9-4.037 9-9z"/>
      <path fill="#FDB902" fill-rule="nonzero" d="M9 15.855A6.863 6.863 0 012.145 9 6.863 6.863 0 019 2.145 6.863 6.863 0 0115.855 9 6.863 6.863 0 019 15.855z"/>
      <path fill="#FD8C02" fill-rule="nonzero" d="M15.855 9A6.863 6.863 0 009 2.145v13.71A6.863 6.863 0 0015.855 9z"/>
      <path fill="#DB7900" d="M8.818 5.063l-.001.953h.456v-.954h.875l-.001.954H13.5v1.766l-2.751 2.736H13.5v1.413h-3.353v1.007h-.874V11.93h-.456v1.008h-.874V11.93l-1.056.001 4.445-4.379H4.518V6.016h3.425v-.954h.875zm-1.421 5.35l-1.549 1.5H4.5v-1.5h2.897zm2.46-2.225L8.161 9.83H4.518V8.188h5.338z"/>
    </g>
  </symbol>
  <symbol viewBox="0 0 14 17" id="ruble">
    <g fill="none">
      <path fill="#FD8C02" d="M8.739.004H4.037c-.73 0-1.323.592-1.323 1.322v5.395H1.35a1.322 1.322 0 000 2.645h1.364v1.385H1.35a1.322 1.322 0 000 2.645h1.364v1.364a1.323 1.323 0 002.645 0v-1.364h2.708a1.322 1.322 0 000-2.645H5.359V9.366h3.38c2.58 0 4.68-2.1 4.68-4.681S11.32.004 8.74.004zm0 6.717h-3.38V2.649h3.38c1.122 0 2.036.913 2.036 2.036a2.04 2.04 0 01-2.036 2.036z"/>
      <path fill="#FDB902" d="M5.764.003v2.645H5.36v4.073l.405-.001v2.645H5.36v1.386h.405v2.645H5.36v1.364a1.323 1.323 0 01-2.639.121l-.006-.12v-1.365H1.35a1.322 1.322 0 01-.12-2.64l.12-.005h1.364V9.366H1.35a1.322 1.322 0 01-.12-2.64l.12-.005h1.364V1.326c0-.69.528-1.256 1.202-1.317l.12-.005h1.728z"/>
    </g>
  </symbol>

  <symbol viewBox="0 0 16 16" id="sp-round">
    <g fill="none">
      <path fill="#F6D4B0" d="M13.976 7.749l-.038-.512.325-.324c1.435-1.435 1.435-3.781 0-5.204a3.685 3.685 0 00-5.204 0l-.324.325a3.397 3.397 0 00-.512-.038l.562-.561c1.584-1.585 4.167-1.597 5.752 0a4.073 4.073 0 010 5.752l-.561.562zM7.25 2.046l-.325-.324C5.49.287 3.145.287 1.722 1.722.275 3.145.275 5.49 1.722 6.925l.324.325a3.399 3.399 0 00-.037.512L1.447 7.2c-1.584-1.585-1.597-4.168 0-5.752a4.075 4.075 0 015.753 0l.561.561c-.174 0-.349.012-.511.037zM1.997 8.223l.037.512-.324.324C.275 10.494.275 12.84 1.697 14.263a3.682 3.682 0 005.203 0l.325-.325c.162.025.337.038.512.038l-.562.561c-1.585 1.585-4.168 1.597-5.752.013a4.064 4.064 0 01.012-5.753l.562-.574zm6.725 5.703l.325.324c1.435 1.435 3.78 1.435 5.203 0a3.671 3.671 0 00-.012-5.203l-.325-.325c.025-.162.038-.337.038-.511l.561.561c1.585 1.585 1.597 4.168.013 5.753a4.065 4.065 0 01-5.753-.013l-.561-.561c.174.012.35 0 .511-.025z"/>
      <path fill="#FD8C02" d="M7.986 0a7.985 7.985 0 10-.001 15.973A7.985 7.985 0 007.986 0zm0 11.98a3.99 3.99 0 01-3.993-3.994 3.988 3.988 0 013.993-3.993 3.988 3.988 0 013.993 3.993 3.988 3.988 0 01-3.993 3.993z"/>
      <path fill="#FFDF40" d="M7.986 3.032a4.958 4.958 0 00-4.954 4.954 4.958 4.958 0 004.954 4.954 4.958 4.958 0 004.954-4.954 4.958 4.958 0 00-4.954-4.954zm0 8.947a3.988 3.988 0 01-3.993-3.993 3.988 3.988 0 013.993-3.993 3.988 3.988 0 013.993 3.993 3.988 3.988 0 01-3.993 3.993z"/>
      <path fill="#FFE6CC" d="M6.127 11.517a3.99 3.99 0 01-1.685-1.684L1.56 12.728a7.978 7.978 0 001.684 1.684l2.883-2.895zm3.706-7.075a3.92 3.92 0 011.684 1.685l2.895-2.883a8.295 8.295 0 00-1.684-1.684L9.833 4.442zM1.56 3.244l2.882 2.883a3.928 3.928 0 011.685-1.685L3.244 1.56A8.295 8.295 0 001.56 3.244zm12.852 9.484L11.53 9.845a3.917 3.917 0 01-1.685 1.685l2.883 2.882a8.295 8.295 0 001.684-1.684z"/>
      <path fill="#FFFCEB" d="M10.544 3.743l-.699.7a3.92 3.92 0 011.685 1.684l.699-.699a5.074 5.074 0 00-1.685-1.685zm-6.102 6.09l-.699.711c.412.686.999 1.26 1.685 1.685l.699-.7a4.158 4.158 0 01-1.685-1.696zm5.403 1.697l.7.699a5.071 5.071 0 001.684-1.685l-.7-.699a4.196 4.196 0 01-1.684 1.685zM6.14 4.455l-.71-.712a5.19 5.19 0 00-1.686 1.685l.7.699A4.057 4.057 0 016.14 4.455z"/>
    </g>
  </symbol>

  <symbol viewBox="0 0 34 30" id="sp-round-comment">
    <g fill="none">
      <path fill="#F6D4B0" d="M26.204 14.53l-.07-.96.609-.608c2.69-2.69 2.69-7.09 0-9.757a6.907 6.907 0 00-9.757 0l-.608.609a6.36 6.36 0 00-.96-.07l1.053-1.053c2.972-2.972 7.815-2.995 10.786 0 2.972 2.97 2.972 7.814 0 10.785l-1.053 1.053zM13.594 3.836l-.609-.608c-2.69-2.69-7.089-2.69-9.756 0-2.714 2.667-2.714 7.066 0 9.756l.608.609c-.047.304-.07.631-.07.959L2.714 13.5c-2.971-2.971-2.995-7.815 0-10.786 2.971-2.971 7.815-2.971 10.786 0l1.053 1.053c-.328 0-.655.023-.96.07zM3.744 15.42l.07.959-.609.608c-2.69 2.69-2.69 7.09-.023 9.757a6.906 6.906 0 009.756 0l.609-.609c.304.047.631.07.959.07l-1.053 1.053c-2.971 2.972-7.814 2.995-10.786.024-2.971-2.972-2.971-7.815.024-10.786l1.052-1.076zm12.61 10.692l.609.608c2.69 2.69 7.089 2.69 9.756 0a6.885 6.885 0 00-.023-9.756l-.609-.609c.047-.304.07-.631.07-.959l1.053 1.053c2.972 2.971 2.995 7.814.024 10.786-2.971 2.971-7.815 2.971-10.786-.024l-1.053-1.052c.328.023.655 0 .96-.047z"/>
      <path fill="#FD8C02" d="M14.974 0C6.714 0 0 6.715 0 14.974c0 8.26 6.691 14.974 14.974 14.974 8.26 0 14.974-6.715 14.974-14.974C29.948 6.714 23.233 0 14.974 0zm0 22.46c-4.141 0-7.487-3.345-7.487-7.486s3.346-7.487 7.487-7.487 7.487 3.346 7.487 7.487-3.346 7.487-7.487 7.487z"/>
      <path fill="#FFDF40" d="M14.974 5.685c-5.124 0-9.289 4.165-9.289 9.289s4.165 9.289 9.289 9.289 9.289-4.165 9.289-9.289-4.165-9.289-9.289-9.289zm0 16.776c-4.141 0-7.487-3.346-7.487-7.487s3.346-7.487 7.487-7.487 7.487 3.346 7.487 7.487-3.346 7.487-7.487 7.487z"/>
      <path fill="#FFE6CC" d="M11.488 21.595a7.484 7.484 0 01-3.159-3.158l-5.404 5.428a14.961 14.961 0 003.158 3.158l5.405-5.428zM18.437 8.33a7.354 7.354 0 013.158 3.159l5.428-5.405a15.52 15.52 0 00-3.158-3.158L18.437 8.33zM2.925 6.083l5.404 5.405a7.356 7.356 0 013.159-3.159L6.083 2.925a15.52 15.52 0 00-3.158 3.158zm24.098 17.782L21.62 18.46a7.356 7.356 0 01-3.159 3.159l5.405 5.404a15.52 15.52 0 003.158-3.158z"/>
      <path fill="#FFFCEB" d="M19.77 7.019l-1.31 1.31a7.356 7.356 0 013.159 3.159l1.31-1.31c-.796-1.287-1.872-2.387-3.159-3.159zM8.33 18.437L7.018 19.77c.772 1.287 1.872 2.363 3.159 3.159l1.31-1.31a7.814 7.814 0 01-3.159-3.182zm10.13 3.182l1.31 1.31c1.287-.772 2.363-1.872 3.159-3.159l-1.31-1.31a7.899 7.899 0 01-3.159 3.159zM11.511 8.353l-1.333-1.334a9.711 9.711 0 00-3.159 3.159l1.31 1.31a7.615 7.615 0 013.182-3.135z"/>
      <path fill="#FFDF40" d="M30.663 10.218h-9.75A2.318 2.318 0 0018.6 12.53v6.552a2.318 2.318 0 002.312 2.312h5.853a.39.39 0 01.38.478 9.798 9.798 0 01-.743 2.076c-.158.321.2.648.505.46.881-.545 2.134-1.458 3.19-2.747a.729.729 0 01.566-.267 2.32 2.32 0 002.313-2.312V12.53a2.32 2.32 0 00-2.313-2.312z"/>
      <path fill="#FFA73C" d="M28.643 21.872a.39.39 0 00-.38-.478h-1.499a.39.39 0 01.38.478 9.798 9.798 0 01-.743 2.076c-.158.321.2.648.505.46.338-.21.731-.473 1.146-.79a9.742 9.742 0 00.59-1.746z"/>
      <g fill="#FFB200" transform="translate(21.029 15.194)">
        <circle cx=".777" cy=".8" r="1"/>
        <circle cx="3.255" cy=".8" r="1"/>
        <circle cx="5.734" cy=".8" r="1"/>
        <circle cx="8.212" cy=".8" r="1"/>
      </g>
      <path fill="#FFA73C" d="M21.805 15.994c0-.284.155-.532.384-.664a.767.767 0 100 1.329.766.766 0 01-.384-.665zm2.479 0c0-.284.154-.532.384-.664a.766.766 0 100 1.329.766.766 0 01-.384-.665zm2.478 0c0-.284.155-.532.384-.664a.766.766 0 100 1.329.766.766 0 01-.384-.665zm2.478 0c0-.284.155-.532.384-.664a.767.767 0 100 1.329.767.767 0 01-.383-.665z" opacity=".4"/>
    </g>
  </symbol>
  <symbol viewBox="0 0 35 31" id="sp-round-message">
    <g fill="none">
      <path fill="#F6D4B0" d="M26.516 14.702l-.07-.97.615-.616c2.723-2.723 2.723-7.174 0-9.873a6.99 6.99 0 00-9.873 0l-.615.616a6.515 6.515 0 00-.971-.071l1.065-1.065c3.007-3.007 7.908-3.03 10.915 0 3.006 3.006 3.006 7.907 0 10.914l-1.066 1.065zm-12.76-10.82l-.616-.615c-2.723-2.722-7.174-2.722-9.873 0-2.746 2.7-2.746 7.15 0 9.873l.616.615c-.048.308-.071.64-.071.971l-1.066-1.065c-3.006-3.007-3.03-7.908 0-10.915 3.007-3.006 7.908-3.006 10.915 0l1.065 1.066c-.331 0-.663.023-.97.07zm-9.968 11.72l.071.97-.615.616C.52 19.911.52 24.362 3.22 27.061a6.986 6.986 0 009.872 0l.616-.616c.308.048.64.071.97.071l-1.065 1.066c-3.006 3.007-7.907 3.03-10.914.023-3.007-3.006-3.007-7.907.024-10.914l1.065-1.089zm12.761 10.82l.616.615c2.722 2.723 7.173 2.723 9.872 0a6.965 6.965 0 00-.023-9.872l-.616-.616c.047-.308.071-.64.071-.97l1.065 1.065c3.007 3.006 3.03 7.907.024 10.914-3.007 3.007-7.907 3.007-10.914-.024l-1.066-1.065c.332.024.663 0 .971-.047z"/>
      <path fill="#FD8C02" d="M15.152 0C6.795 0 0 6.795 0 15.152c0 8.358 6.771 15.152 15.152 15.152 8.358 0 15.152-6.794 15.152-15.152C30.304 6.795 23.51 0 15.152 0zm0 22.728a7.568 7.568 0 01-7.576-7.576 7.568 7.568 0 017.576-7.576 7.568 7.568 0 017.576 7.576 7.568 7.568 0 01-7.576 7.576z"/>
      <path fill="#FFDF40" d="M15.152 5.753c-5.185 0-9.399 4.214-9.399 9.4 0 5.184 4.214 9.398 9.4 9.398 5.184 0 9.398-4.214 9.398-9.399 0-5.185-4.214-9.399-9.399-9.399zm0 16.975a7.568 7.568 0 01-7.576-7.576 7.568 7.568 0 017.576-7.576 7.568 7.568 0 017.576 7.576 7.568 7.568 0 01-7.576 7.576z"/>
      <path fill="#FFE6CC" d="M11.625 21.852a7.566 7.566 0 01-3.197-3.196L2.96 24.15a15.16 15.16 0 003.197 3.196l5.469-5.493zm7.031-13.424a7.435 7.435 0 013.196 3.197l5.493-5.47a15.766 15.766 0 00-3.196-3.196l-5.493 5.47zM2.96 6.156l5.47 5.469a7.435 7.435 0 013.196-3.197L6.155 2.96a15.77 15.77 0 00-3.196 3.197zm24.386 17.993l-5.469-5.47a7.435 7.435 0 01-3.196 3.197l5.469 5.469a15.766 15.766 0 003.196-3.196z"/>
      <path fill="#FFFCEB" d="M20.006 7.103L18.68 8.428a7.435 7.435 0 013.196 3.197l1.326-1.326c-.805-1.302-1.894-2.415-3.196-3.196zM8.428 18.656l-1.325 1.35c.78 1.302 1.894 2.39 3.196 3.196l1.326-1.326a7.9 7.9 0 01-3.197-3.22zm10.252 3.22l1.326 1.326c1.302-.781 2.39-1.894 3.196-3.196l-1.326-1.326a7.986 7.986 0 01-3.196 3.196zM11.648 8.452l-1.35-1.35a9.84 9.84 0 00-3.195 3.197l1.325 1.326a7.702 7.702 0 013.22-3.173z"/>
      <path fill="#FDB902" d="M34 13.254v7.034a.503.503 0 01-.502.503H19.931a.503.503 0 01-.502-.503V10.239c0-.277.225-.502.502-.502h13.568c.277 0 .502.225.502.502v3.015z"/>
      <path fill="#FFDF40" d="M33.875 9.91l-6.675 5.7a.75.75 0 01-.97 0l-6.675-5.7a.495.495 0 01.376-.173h13.568c.145 0 .283.063.377.173z"/>
      <path fill="#FFA73C" d="M33.822 20.67a.494.494 0 01-.324.12H19.931a.494.494 0 01-.324-.12l5.565-5.962 1.058.902a.75.75 0 00.97 0l1.055-.902 5.567 5.962z"/>
    </g>
  </symbol>

  <symbol viewBox="0 0 24 24" id="info">
    <g fill="none">
      <path fill="#FDB902" d="M12 24a11.919 11.919 0 01-8.485-3.515A11.917 11.917 0 010 12c0-3.205 1.248-6.219 3.515-8.485A11.917 11.917 0 0112 0c3.205 0 6.219 1.248 8.485 3.515A11.917 11.917 0 0124 12c0 3.205-1.248 6.219-3.515 8.485A11.917 11.917 0 0112 24z"/>
      <path fill="#FD8C02" d="M20.485 3.515A11.917 11.917 0 0012 0v24c3.205 0 6.219-1.248 8.485-3.515A11.917 11.917 0 0024 12c0-3.205-1.248-6.219-3.515-8.485z"/>
      <path d="M14.109 17.39v-7.031H8.953v1.406h.937v5.625h-.984v1.407H15V17.39zM12 8.953c1.163 0 2.11-.947 2.11-2.11a2.114 2.114 0 00-2.111-2.109 2.111 2.111 0 00-2.109 2.11c0 1.162.947 2.109 2.11 2.109z" fill="#FFF"/>
      <path d="M12 8.953c1.163 0 2.11-.947 2.11-2.11A2.113 2.113 0 0012 4.734v4.219zm2.109 8.437v-7.031H12v8.438h3V17.39z" fill="#FFB200" opacity=".2"/>
    </g>
  </symbol>
  <symbol viewBox="0 0 16 15" id="warning">
    <g fill="none">
      <path fill="#FDB902" d="M13.725 14.358H2.27a2.268 2.268 0 01-2.03-3.284l5.729-9.807a2.269 2.269 0 014.057 0l5.729 9.807a2.27 2.27 0 01-2.03 3.284z"/>
      <path fill="#FD8C02" d="M13.727 14.358h-5.73V.013a2.246 2.246 0 012.03 1.255l5.727 9.807a2.268 2.268 0 01-2.028 3.283z"/>
      <path fill="#6A6352" d="M8.671 11.237a.736.736 0 110-.001z"/>
      <path fill="#393835" d="M8.671 11.237a.735.735 0 01-.735.735v-1.47a.735.735 0 01.735.735z"/>
      <path fill="#6A6352" d="M7.936 4.8c.406 0 .735.33.735.736V9.03a.736.736 0 01-1.471 0V5.536c0-.407.33-.736.736-.736z"/>
      <path fill="#393835" d="M8.671 5.536V9.03a.735.735 0 01-.735.735V4.8a.735.735 0 01.735.735z"/>
    </g>
  </symbol>

  <symbol viewBox="0 0 30 21" id="coupon">
    <g fill="none">
      <path fill="#FF9100" d="M28.125 0H10.312c-.249 0-.487.1-.663.274L8.438 1.487 7.226.274A.94.94 0 006.563 0H1.875A1.878 1.878 0 000 1.875V18.75c0 1.035.842 1.875 1.875 1.875h4.688c.249 0 .487-.1.663-.274l1.212-1.213 1.21 1.211a.938.938 0 00.665.276h17.812c1.035 0 1.875-.84 1.875-1.875V1.875C30 .842 29.16 0 28.125 0z"/>
      <path fill="#FDBF00" d="M6.563 0c.199 0 .391.064.55.178l.113.096 1.212 1.213L9 .922V19.7l-.563-.56-1.21 1.212a.947.947 0 01-.517.262l-.147.012H1.875A1.876 1.876 0 01.01 18.943L0 18.75V1.875C0 .906.74.106 1.684.01L1.875 0h4.688z"/>
      <path d="M15.938 9.375a2.816 2.816 0 01-2.813-2.813 2.816 2.816 0 012.813-2.812 2.816 2.816 0 012.812 2.813 2.816 2.816 0 01-2.813 2.812zm0-3.75a.938.938 0 10.937.937.938.938 0 00-.938-.937zm5.625 11.25a2.816 2.816 0 01-2.813-2.813 2.816 2.816 0 012.813-2.812 2.816 2.816 0 012.812 2.813 2.816 2.816 0 01-2.813 2.812zm0-3.75a.94.94 0 00-.938.938.94.94 0 00.938.937.94.94 0 00.937-.938.94.94 0 00-.938-.937zm-7.5 3.75a.935.935 0 01-.72-1.537l9.375-11.25a.938.938 0 111.438 1.201L14.78 16.54a.936.936 0 01-.718.336zM7.5 3.75h1.875v1.875H7.5zM7.5 15h1.875v1.875H7.5zm0-3.75h1.875v1.875H7.5zm0-3.75h1.875v1.875H7.5z" fill="#FAFAFA"/>
    </g>
  </symbol>

  <symbol viewBox="0 0 30 30" id="dialogue">
    <g fill="none">
      <path fill="#FDB902" d="M14.446 27.881v2.063H0V27.88a5.853 5.853 0 015.847-5.846h2.751a5.854 5.854 0 015.848 5.846z"/>
      <path fill="#FD8C02" d="M14.446 27.881v2.063H7.268v-7.91h1.33a5.855 5.855 0 015.848 5.847z"/>
      <path fill="#F6E1BE" d="M11.547 19.382a4.41 4.41 0 01-4.403 4.407 4.41 4.41 0 01-4.402-4.407 4.41 4.41 0 014.402-4.408 4.41 4.41 0 014.403 4.408z"/>
      <path fill="#F1CEA0" d="M11.547 19.382a4.41 4.41 0 01-4.28 4.405v-8.811a4.41 4.41 0 014.28 4.406z"/>
      <path fill="#FDB902" d="M29.943 12.91v2.063H15.497v-2.062a5.854 5.854 0 015.847-5.847h2.751a5.855 5.855 0 015.848 5.847z"/>
      <path fill="#FD8C02" d="M29.943 12.91v2.063h-7.25v-7.91h1.402a5.855 5.855 0 015.848 5.848z"/>
      <path fill="#F6E1BE" d="M27.044 4.411a4.41 4.41 0 01-4.402 4.407 4.41 4.41 0 01-4.403-4.407A4.41 4.41 0 0122.642.004a4.41 4.41 0 014.402 4.407z"/>
      <path fill="#F1CEA0" d="M27.044 4.411a4.41 4.41 0 01-4.351 4.407V.004a4.41 4.41 0 014.35 4.407z"/>
      <path fill="#FDB902" d="M29.947 18.775v9.24H17.292v-4.77l-3.719-4.47z"/>
      <path fill="#FD8C02" d="M22.687 18.775h7.26v9.24h-7.26z"/>
      <path fill="#FDB902" d="M16.38 3.337l-3.719 4.469v4.771H.006v-9.24z"/>
      <path fill="#FD8C02" d="M16.38 3.337l-3.719 4.469v4.771H7.267v-9.24z"/>
      <path fill="#FFF" d="M21.058 22.518h5.147v1.755h-5.147z"/>
      <path fill="#FFF" d="M22.687 22.518h3.518v1.755h-3.518zM3.749 7.08h5.146v1.754H3.749z"/>
      <path fill="#FFF" d="M7.267 7.08h1.628v1.754H7.267z"/>
    </g>
  </symbol>

  <symbol viewBox="0 0 30 35" id="login">
    <g fill="none" fill-rule="evenodd">
      <path fill="#FDB902" fill-rule="nonzero" d="M21 4H4.733v26.133H21a1 1 0 001-1V5a1 1 0 00-1-1z"/>
      <circle cx="9" cy="17" r="2" fill="#FFF"/>
      <path fill="#FD8C02" fill-rule="nonzero" d="M29 14.067h-5v-1a1 1 0 00-1.555-.832l-6 4a.999.999 0 000 1.664l6 4c.308.205.703.223 1.027.05.325-.175.528-.514.528-.882v-1h5a1 1 0 001-1v-4a1 1 0 00-1-1zM13.585.189a1 1 0 00-.901-.138l-12 4A1 1 0 000 5v24.133a1 1 0 00.684.949l12 4A.998.998 0 0014 33.133V1c0-.321-.155-.623-.415-.811zM9 18.067a1 1 0 110-2 1 1 0 010 2z"/>
    </g>
  </symbol>

  <symbol viewBox="0 0 24 24" id="time">
    <g fill="none">
      <circle cx="12" cy="12" r="12" fill="#FDB902"/>
      <path fill="#FD8C02" d="M24 12c0-6.591-5.409-12-12-12v24c6.591 0 12-5.409 12-12z"/>
      <path fill="#FFF" d="M12 2.86c-5.04 0-9.14 4.1-9.14 9.14 0 5.04 4.1 9.188 9.14 9.188 5.04 0 9.14-4.148 9.14-9.188 0-5.04-4.1-9.14-9.14-9.14z"/>
      <path fill="#FFE6CC" d="M21.14 12c0-5.04-4.1-9.14-9.14-9.14v18.328c5.04 0 9.14-4.148 9.14-9.188z" opacity=".4"/>
      <path fill="#393835" d="M12 5.672a.702.702 0 00-.703.703v7.031a.702.702 0 101.406 0V6.375A.702.702 0 0012 5.672z"/>
      <path fill="#393835" d="M12.703 13.406V6.375A.702.702 0 0012 5.672v8.437a.702.702 0 00.703-.703z"/>
      <path fill="#393835" d="M16.219 11.297h-5.625a.702.702 0 100 1.406h5.625a.703.703 0 100-1.406z"/>
      <path fill="#393835" d="M16.922 12a.703.703 0 00-.703-.703H12v1.406h4.219a.703.703 0 00.703-.703z"/>
    </g>
  </symbol>
  <symbol viewBox="0 0 27 38" id="wheel-pin">
    <g fill-rule="evenodd" fill="transparent">
      <path d="M13 37.895L25.631 0H.368z"/>
      <path stroke="#FFB200" stroke-width="3.158" d="M13 23.428l4.756-14.27H8.243L13 23.428z"/>
    </g>
  </symbol>

  <symbol viewBox="0 0 30 25" id="teamwork">
    <g fill="none">
      <path fill="#FDB902" d="M10.902 20.576H.661a.66.66 0 01-.661-.66v-.693a4.802 4.802 0 014.801-4.801h4.664a4.14 4.14 0 013.69 2.26"/>
      <path fill="#FD8C02" d="M9.465 14.422H6.69v6.154h4.211l2.252-3.894a4.14 4.14 0 00-3.69-2.26z"/>
      <circle cx="20.341" cy="5.823" r="5.794" fill="#FFE6CC"/>
      <path fill="#FDB902" d="M28.868 24.969H11.813a1.084 1.084 0 01-1.084-1.084v-2.61a6.037 6.037 0 016.038-6.037h7.148a6.037 6.037 0 016.037 6.038v2.609c0 .598-.485 1.084-1.084 1.084z"/>
      <g transform="translate(2.546)">
        <circle cx="4.145" cy="7.261" r="4.101" fill="#FFE6CC"/>
        <path fill="#FC9" d="M17.837.029v11.586a5.793 5.793 0 000-11.585z"/>
      </g>
      <path fill="#FD8C02" d="M23.915 15.238h-3.532v9.73h8.485c.599 0 1.084-.485 1.084-1.083v-2.61a6.037 6.037 0 00-6.037-6.037z"/>
      <path fill="#FC9" d="M6.691 3.785h-.022v8.202h.022a4.1 4.1 0 100-8.202z"/>
    </g>
  </symbol>

  <symbol viewBox="0 0 220 220" id="eagle">
    <g fill="none">
      <circle cx="109.623" cy="109.623" r="109.623" fill="#FFE14D"/>
      <path fill="#FB3" d="M219.246 109.623C219.246 49.177 170.07 0 109.623 0v219.246c60.447 0 109.623-49.176 109.623-109.623z"/>
      <path fill="#FDB902" d="M109.623 209.623c-55.138 0-100-44.861-100-100 0-55.138 44.862-100 100-100 55.139 0 100 44.862 100 100 0 55.139-44.861 100-100 100z"/>
      <path fill="#FD8C02" d="M209.623 109.623c0-55.138-44.861-100-100-100v200c55.139 0 100-44.861 100-100z"/>
      <path fill="#F9F9F9" d="M138.475 125.775L136 117.112a85.13 85.13 0 01-3.276-23.388C132.724 80.643 122.082 70 109 70S85.276 80.643 85.276 93.724A85.136 85.136 0 0182 117.112l-2.475 8.663a11.387 11.387 0 001.873 10.067 11.388 11.388 0 009.165 4.566h2a11.487 11.487 0 008.12 3.368h2.273c1.641 2.826 3.778 4.591 6.044 4.591 2.266 0 4.403-1.765 6.044-4.591h2.273c3.07 0 5.987-1.233 8.12-3.368h2c3.635 0 6.976-1.664 9.165-4.566a11.384 11.384 0 001.873-10.067z"/>
      <path fill="#FFE7CB" d="M138.475 125.775L136 117.112a85.13 85.13 0 01-3.276-23.388C132.724 80.643 122.082 70 109 70v78.367c2.266 0 4.403-1.765 6.044-4.591h2.273c3.07 0 5.987-1.233 8.12-3.368h2c3.635 0 6.976-1.664 9.165-4.566a11.384 11.384 0 001.873-10.067z"/>
      <path fill="#393835" d="M111.019 97.176a2.297 2.297 0 01.036-3.247l7.054-6.897a2.296 2.296 0 113.21 3.283l-7.053 6.897c-.907.887-2.36.87-3.247-.036zm-7.285.036l-7.053-6.897a2.296 2.296 0 113.21-3.283l7.053 6.897a2.296 2.296 0 11-3.21 3.283z"/>
      <path fill="#FFD098" d="M129.478 125.43a2.298 2.298 0 00-1.373 2.943 11.49 11.49 0 01-1.386 10.509c-.385.55-.815 1.06-1.282 1.526h2c1.458 0 2.869-.268 4.177-.777a16.084 16.084 0 00.806-12.828 2.296 2.296 0 00-2.942-1.373z"/>
      <path fill="#FFE7CB" d="M92.562 140.408a11.419 11.419 0 01-1.282-1.526 11.494 11.494 0 01-1.386-10.51 2.295 2.295 0 10-4.314-1.569 16.071 16.071 0 00.805 12.828 11.52 11.52 0 004.178.777h2z"/>
      <path fill="#FFDD54" d="M109 120.51a2.296 2.296 0 01-2.132-1.443 76.956 76.956 0 00-7.412-14.09l-1.55-2.326a2.296 2.296 0 011.91-3.569h2.296v-.766c0-3.797 3.09-6.887 6.888-6.887s6.888 3.09 6.888 6.887v.766h2.296a2.297 2.297 0 011.91 3.569l-1.55 2.326a76.956 76.956 0 00-7.412 14.09A2.296 2.296 0 01109 120.51z"/>
      <path fill="#FFE7CB" d="M102.967 143.776c-.215-.375-.425-.77-.626-1.187-1.629-3.369-2.525-7.567-2.525-11.823a2.296 2.296 0 00-4.592 0c0 4.443.861 8.863 2.437 12.604.974.266 1.989.406 3.021.406h2.285z"/>
      <path fill="#FFD098" d="M120.479 128.47a2.296 2.296 0 00-2.296 2.296c0 4.256-.896 8.455-2.525 11.822-.201.418-.41.813-.626 1.188h2.285c1.032 0 2.047-.14 3.021-.406 1.576-3.74 2.437-8.16 2.437-12.604a2.296 2.296 0 00-2.296-2.296z"/>
      <path fill="#FF9D21" d="M120.208 100.294a2.297 2.297 0 00-2.024-1.212h-2.296v-.766A6.895 6.895 0 00109 91.429v29.081c.939 0 1.783-.571 2.132-1.443a76.956 76.956 0 017.412-14.09l1.55-2.326c.47-.704.513-1.61.114-2.357z"/>
    </g>
  </symbol>
  <symbol viewBox="0 0 220 220" id="egg">
    <g fill="none">
      <circle cx="109.623" cy="109.623" r="109.623" fill="#81807F"/>
      <path fill="#5D5C5A" d="M219.246 109.623C219.246 49.177 170.07 0 109.623 0v219.246c60.447 0 109.623-49.176 109.623-109.623z"/>
      <path fill="#5A5A58" d="M109.623 209.623c-55.138 0-100-44.861-100-100 0-55.138 44.862-100 100-100 55.139 0 100 44.862 100 100 0 55.139-44.861 100-100 100z"/>
      <path fill="#393835" d="M209.623 109.623c0-55.138-44.861-100-100-100v200c55.139 0 100-44.861 100-100z"/>
      <path fill="#F9F9F9" d="M109.383 71C91.443 71 78 100.715 78 117.49 78 134.863 92.078 149 109.383 149c17.304 0 31.383-14.136 31.383-31.51 0-16.803-13.457-46.49-31.383-46.49z"/>
      <path fill="#FFE7CB" d="M109.383 71v78c17.304 0 31.383-14.136 31.383-31.51 0-16.803-13.457-46.49-31.383-46.49z"/>
      <g transform="translate(114.715 85.016)">
        <circle cx="3.047" cy="3.047" r="3.046" fill="#FF9D21"/>
        <circle cx="9.141" cy="13.711" r="3.046" fill="#FFDD54"/>
      </g>
    </g>
  </symbol>

  <symbol viewBox="0 0 16 25" id="triangle" stroke-width="4">
    <path d="M8 19.034l5.51-17.216H2.49L8 19.034z" fill-rule="evenodd"/>
  </symbol>
  <symbol viewBox="0 0 22 23" id="trophy">
    <g fill="none">
      <path fill="#FF8E1D" d="M14.466 13.254a.645.645 0 01-.002-1.289c1.62-.005 3.16-.983 4.338-2.753 1.13-1.699 1.794-3.92 1.895-6.314h-2.839a.644.644 0 110-1.289h3.497c.356 0 .645.289.645.645 0 2.888-.755 5.612-2.125 7.672-1.424 2.14-3.344 3.321-5.407 3.328h-.002z"/>
      <path fill="#FFB023" d="M7.534 13.254h-.002c-2.063-.007-3.983-1.188-5.407-3.328C.755 7.866 0 5.142 0 2.254c0-.356.289-.645.645-.645h3.497a.644.644 0 010 1.289h-2.84c.102 2.393.766 4.615 1.896 6.314 1.178 1.77 2.719 2.748 4.338 2.753a.645.645 0 01-.002 1.289z"/>
      <path fill="#FFD12B" d="M17.904.021H4.096a.644.644 0 00-.644.645c0 3.786.742 7.356 2.09 10.052.864 1.726 1.92 2.98 3.088 3.698v3.509c0 .356.288.645.644.645h3.452a.644.644 0 00.644-.645v-3.51c1.168-.717 2.225-1.97 3.088-3.697 1.348-2.696 2.09-6.266 2.09-10.052a.644.644 0 00-.644-.645z"/>
      <path fill="#FFB023" d="M13.37 17.925v-3.51c1.168-.717 2.225-1.97 3.088-3.697 1.348-2.696 2.09-6.266 2.09-10.052a.644.644 0 00-.644-.645H11V18.57h1.726a.644.644 0 00.644-.645z"/>
      <path fill="#FF8E1D" d="M14.452 17.28H7.548a2.373 2.373 0 00-2.37 2.371v1.726c0 .356.288.644.644.644h10.356a.644.644 0 00.644-.644v-1.726a2.372 2.372 0 00-2.37-2.37z"/>
      <path fill="#FF6D15" d="M14.452 17.28H11v4.741h5.178a.644.644 0 00.644-.644v-1.726a2.372 2.372 0 00-2.37-2.37z"/>
      <path fill="#FFB023" d="M16.868 22.021H5.132a.644.644 0 110-1.289h11.736a.645.645 0 010 1.289z"/>
      <path fill="#FF8E1D" d="M16.868 20.732H11v1.29h5.868a.646.646 0 000-1.29z"/>
    </g>
  </symbol>

  <symbol viewBox="0 0 261 128" id="rectangle-h">
    <path d="M10 0h241c5.523 0 10 4.477 10 10v94.483a10 10 0 01-8.89 9.938l-117.171 13.083c-2.95.33-5.928.33-8.878 0L8.891 114.421A10 10 0 010 104.483V10C0 4.477 4.477 0 10 0z"/>
  </symbol>

  <symbol viewBox="0 0 11 18" id="info-i">
    <g fill="none">
      <path d="M4.781 13.64c-1.188 0-2.147.96-2.147 2.147 0 1.188.959 2.146 2.147 2.146a2.143 2.143 0 002.146-2.146 2.144 2.144 0 00-2.146-2.146zm0-13.64h-.073C2.391 0 .488 1.903.488 4.221c0 .801.644 1.43 1.43 1.43.788 0 1.432-.629 1.432-1.43 0-.744.615-1.36 1.359-1.36h.072c.8.044 1.43.702 1.43 1.503 0 .472-.071.844-.443 1.202l-.987 1.002-.587.586a2.838 2.838 0 00-.844 2.018v1.607c0 .787.644 1.431 1.43 1.431.788 0 1.431-.644 1.431-1.43V9.171L7.8 7.597c.83-.844 1.273-1.889 1.273-3.234A4.377 4.377 0 004.781 0z" fill="#C7C5BF" opacity=".6"/>
      <path d="M6.927 15.787a2.142 2.142 0 01-2.146 2.146v-4.292c1.188 0 2.146.959 2.146 2.146zM9.074 4.364c0 1.345-.444 2.39-1.274 3.234L6.212 9.172v1.607c0 .787-.644 1.431-1.431 1.431V6.568l.987-1.002c.372-.358.444-.73.444-1.202a1.508 1.508 0 00-1.431-1.502V0a4.377 4.377 0 014.293 4.364z" fill="#C1BFB6"/>
    </g>
  </symbol>
  <symbol viewBox="0 0 16 16" id="list">
    <g transform="translate(0 .5)" fill="none" fill-rule="evenodd">
      <circle cx="1.5" cy="13.5" r="1.5" fill="#E3E2DF" fill-rule="nonzero"/>
      <rect width="11" height="3" x="5" y="12" fill="#C1BFB6" rx="1.5"/>
      <circle cx="1.5" cy="7.5" r="1.5" fill="#E3E2DF" fill-rule="nonzero"/>
      <rect width="11" height="3" x="5" y="6" fill="#C1BFB6" rx="1.5"/>
      <circle cx="1.5" cy="1.5" r="1.5" fill="#E3E2DF" fill-rule="nonzero"/>
      <rect width="11" height="3" x="5" fill="#C1BFB6" rx="1.5"/>
    </g>
  </symbol>
  <symbol viewBox="0 0 17 18" id="shield-h">
    <g fill="none">
      <path fill="#E3E2DF" d="M8.191 18a12.569 12.569 0 008.166-11.773V3.049A3.049 3.049 0 0113.309 0H3.074A3.049 3.049 0 01.025 3.049v3.178A12.57 12.57 0 008.191 18z"/>
      <path fill="#C1BFB6" d="M8.191 18a12.569 12.569 0 008.166-11.773V3.049A3.049 3.049 0 0113.309 0H8.19v18z"/>
    </g>
  </symbol>

  <symbol viewBox="0 0 16 10" id="ticket">
    <g fill="none">
      <path fill="#FDB902" d="M10.913.885a.869.869 0 00-.869-.869h-9.4A.644.644 0 000 .66v2.253c0 .17.121.318.289.348A1.61 1.61 0 01.29 6.43a.352.352 0 00-.289.348V9.03c0 .356.288.644.644.644h9.4c.48 0 .87-.39.87-.87v-.418.419c0 .48.389.869.869.869h3.573a.644.644 0 00.644-.644V6.777a.353.353 0 00-.289-.348 1.61 1.61 0 010-3.168.352.352 0 00.289-.348V.66a.644.644 0 00-.644-.644h-3.573a.87.87 0 00-.87.87v.385-.386z"/>
      <path fill="#F3D332" d="M2.254 4.845c0 .937-.575 1.758-1.417 2.093V6.22a1.61 1.61 0 000-2.75v-.718a2.252 2.252 0 011.417 2.093z"/>
      <path fill="#FD8C02" d="M1.48 8.837a.643.643 0 01-.643-.644V7.146c0-.123.07-.234.18-.29a2.25 2.25 0 001.237-2.01c0-.87-.494-1.638-1.236-2.012a.327.327 0 01-.181-.29V.016H.644A.644.644 0 000 .66v2.253c0 .17.121.318.29.348a1.61 1.61 0 01-.001 3.168.352.352 0 00-.289.348V9.03c0 .356.288.644.644.644h9.4a.87.87 0 00.869-.837H1.48zm14.52 0v.193a.644.644 0 01-.644.644h-3.573a.87.87 0 01-.869-.837H16z"/>
      <path fill="#393835" d="M10.913 3.477a.241.241 0 01-.241-.242v-.804a.241.241 0 11.483 0v.804a.242.242 0 01-.242.242zm0 1.963a.24.24 0 01-.241-.24v-.741a.241.241 0 11.483 0v.74a.242.242 0 01-.242.242zm0 2.029a.241.241 0 01-.241-.242v-.772a.241.241 0 11.483 0v.772a.242.242 0 01-.242.242zM8.918 5.087H3.477a.241.241 0 110-.483h5.44a.241.241 0 11.001.483zM6.1 7.018H3.478a.241.241 0 110-.483H6.1a.241.241 0 010 .483zm1.659-3.863H4.636a.242.242 0 110-.483h3.123a.241.241 0 010 .483zm1.159 3.863H7.549a.241.241 0 010-.483h1.369a.241.241 0 010 .483z"/>
    </g>
  </symbol>

  <symbol viewBox="0 0 16 16" id="money-gray">
    <g fill="none" fill-rule="evenodd">
      <circle cx="8" cy="8" r="8" fill="#F0EFEC" fill-rule="nonzero"/>
      <path fill="#E3E2DF" fill-rule="nonzero" d="M16 8c0-4.411-3.589-8-8-8v16c4.411 0 8-3.589 8-8z"/>
      <path fill="#E3E2DF" fill-rule="nonzero" d="M8 14.094A6.101 6.101 0 011.906 8 6.101 6.101 0 018 1.906 6.101 6.101 0 0114.094 8 6.101 6.101 0 018 14.094z"/>
      <path fill="#C1BFB6" fill-rule="nonzero" d="M14.094 8A6.101 6.101 0 008 1.906v12.188A6.101 6.101 0 0014.094 8z"/>
      <path fill="#ADABA1" d="M7.838 4.5v.847h.404V4.5h.778v.847H12v1.57L9.555 9.35H12v1.255H9.02v.895h-.777l-.001-.895h-.404v.895h-.777l-.001-.895h-.939l3.952-3.892H4.016V5.348l3.044-.001V4.5h.778zM6.575 9.256L5.198 10.59H4V9.256h2.575zM8.76 7.278l-1.506 1.46H4.016v-1.46h4.745z"/>
    </g>
  </symbol>
  <symbol viewBox="0 0 16 16" id="money-green">
    <g fill="none" fill-rule="evenodd">
      <circle cx="8" cy="8" r="8" fill="#56FB7F" fill-rule="nonzero"/>
      <path fill="#32DD5C" fill-rule="nonzero" d="M16 8c0-4.411-3.589-8-8-8v16c4.411 0 8-3.589 8-8z"/>
      <path fill="#21DB4F" fill-rule="nonzero" d="M8 14.094A6.101 6.101 0 011.906 8 6.101 6.101 0 018 1.906 6.101 6.101 0 0114.094 8 6.101 6.101 0 018 14.094z"/>
      <path fill="#0ABA36" fill-rule="nonzero" d="M14.094 8A6.101 6.101 0 008 1.906v12.188A6.101 6.101 0 0014.094 8z"/>
      <path fill="#019727" d="M7.838 4.5v.847h.404V4.5h.778v.847H12v1.57L9.555 9.35H12v1.255H9.02v.895h-.777l-.001-.895h-.404v.895h-.777l-.001-.895h-.939l3.952-3.892H4.016V5.348l3.044-.001V4.5h.778zM6.575 9.256L5.198 10.59H4V9.256h2.575zM8.76 7.278l-1.506 1.46H4.016v-1.46h4.745z"/>
    </g>
  </symbol>

  <symbol viewBox="0 0 15 16" id="shield">
    <g fill="none">
      <path fill="#6A6352" d="M7.281 16A11.173 11.173 0 0014.54 5.535V2.71A2.71 2.71 0 0111.83 0H2.733a2.71 2.71 0 01-2.71 2.71v2.825c0 4.66 2.893 8.832 7.258 10.465z"/>
      <path fill="#393835" d="M7.281 16A11.173 11.173 0 0014.54 5.535V2.71A2.71 2.71 0 0111.83 0H7.281v16z"/>
    </g>
  </symbol>

  <symbol viewBox="0 0 18 15" id="arr-next">
    <g fill="none">
      <path fill="#6A6352" d="M17.647 7.376L9.375.024v4.767H0v5.191h9.375v4.746z"/>
      <path fill="#393835" d="M9.375 14.728V9.982H0V7.376h17.647z"/>
    </g>
  </symbol>
  <symbol viewBox="0 0 18 15" id="arr-prev-gray">
    <g fill="none">
      <path fill="#E3E2DF" d="M.353 7.376L8.625.024v4.767H18v5.191H8.625v4.746z"/>
      <path fill="#C1BFB6" d="M8.625 14.728V9.982H18V7.376H.353z"/>
    </g>
  </symbol>

  <symbol viewBox="0 0 13 14" id="shield-color">
    <g fill="none">
      <path fill="#FDB902" d="M6.371 14a9.776 9.776 0 006.351-9.157V2.37a2.37 2.37 0 01-2.37-2.371H2.39A2.371 2.371 0 01.019 2.37v2.472A9.78 9.78 0 006.37 14z"/>
      <path fill="#FD8C02" d="M6.371 14a9.776 9.776 0 006.351-9.157V2.37a2.37 2.37 0 01-2.37-2.371h-3.98v14z"/>
    </g>
  </symbol>

  <symbol viewBox="0 0 16 25" id="triangle-gray-dark">
    <path d="M8 19.034l5.51-17.216H2.49L8 19.034z" fill="#393835" stroke="#FFF" stroke-width="3.636" fill-rule="evenodd"/>
  </symbol>

  <symbol viewBox="0 0 30 18" id="teamwork-gray">
    <g fill="none">
      <path fill="#E3E2DF" d="M7.856 14.826H.476A.476.476 0 010 14.35v-.499a3.46 3.46 0 013.46-3.46h3.36c1.16 0 2.165.662 2.658 1.629"/>
      <path fill="#C1BFB6" d="M6.82 10.392h-2v4.434h3.035l1.622-2.806a2.981 2.981 0 00-2.658-1.628z"/>
      <path fill="#E3E2DF" d="M19.867 12.007c.498-.955 1.525-1.66 2.675-1.66h3.837a2.983 2.983 0 012.983 2.983V14c0 .431-.35.781-.781.781h-7.075"/>
      <circle cx="14.656" cy="4.196" r="4.175" fill="#E3E2DF"/>
      <path fill="#E3E2DF" d="M20.8 17.991H8.513a.78.78 0 01-.781-.781v-1.88a4.35 4.35 0 014.35-4.35h5.15a4.35 4.35 0 014.35 4.35v1.88a.78.78 0 01-.78.781z"/>
      <g transform="translate(1.834)">
        <circle cx="22.626" cy="5.232" r="2.955" fill="#E3E2DF"/>
        <circle cx="2.987" cy="5.232" r="2.955" fill="#E3E2DF"/>
        <path fill="#C1BFB6" d="M12.852.02v8.35a4.175 4.175 0 000-8.349z" opacity=".5"/>
      </g>
      <path fill="#C1BFB6" d="M17.232 10.98h-2.545v7.01H20.8a.78.78 0 00.78-.78v-1.88a4.35 4.35 0 00-4.35-4.35z"/>
      <path fill="#C1BFB6" d="M24.46 2.277v5.91a2.955 2.955 0 000-5.91z" opacity=".5"/>
      <path fill="#C1BFB6" d="M26.379 10.347h-1.934v4.434h4.136c.431 0 .781-.35.781-.781v-.67a2.983 2.983 0 00-2.983-2.983z"/>
      <path fill="#C1BFB6" d="M4.821 2.277h-.015v5.91h.015a2.955 2.955 0 000-5.91z" opacity=".5"/>
    </g>
  </symbol>

  <symbol viewBox="0 0 30 18" id="teamwork-h">
    <g fill="none">
      <path fill="#FDB902" d="M7.856 14.826H.476A.476.476 0 010 14.35v-.499a3.46 3.46 0 013.46-3.46h3.36c1.16 0 2.165.662 2.658 1.629"/>
      <path fill="#FD8C02" d="M6.82 10.392h-2v4.434h3.035l1.622-2.806a2.981 2.981 0 00-2.658-1.628z"/>
      <path fill="#FDB902" d="M19.867 12.007c.498-.955 1.525-1.66 2.675-1.66h3.837a2.983 2.983 0 012.983 2.983V14c0 .431-.35.781-.781.781h-7.075"/>
      <circle cx="14.656" cy="4.196" r="4.175" fill="#F6E1BE"/>
      <path fill="#FDB902" d="M20.8 17.991H8.513a.78.78 0 01-.781-.781v-1.88a4.35 4.35 0 014.35-4.35h5.15a4.35 4.35 0 014.35 4.35v1.88a.78.78 0 01-.78.781z"/>
      <g transform="translate(1.834)">
        <circle cx="22.626" cy="5.232" r="2.955" fill="#F6E1BE"/>
        <circle cx="2.987" cy="5.232" r="2.955" fill="#F6E1BE"/>
        <path fill="#F1CEA0" d="M12.852.02v8.35a4.175 4.175 0 000-8.349z"/>
      </g>
      <path fill="#FD8C02" d="M17.232 10.98h-2.545v7.01H20.8a.78.78 0 00.78-.78v-1.88a4.35 4.35 0 00-4.35-4.35z"/>
      <path fill="#F1CEA0" d="M24.46 2.277v5.91a2.955 2.955 0 000-5.91z"/>
      <path fill="#FD8C02" d="M26.379 10.347h-1.934v4.434h4.136c.431 0 .781-.35.781-.781v-.67a2.983 2.983 0 00-2.983-2.983z"/>
      <path fill="#F1CEA0" d="M4.821 2.277h-.015v5.91h.015a2.955 2.955 0 000-5.91z"/>
    </g>
  </symbol>

  <symbol viewBox="0 0 14 11" id="checked">
    <path d="M0 5.704l4.79 4.799 9.198-9.189L12.667.012 4.79 7.88 1.302 4.392z" fill="#FFF"/>
  </symbol>

  <symbol viewBox="0 0 22 33" id="dice-triangle">
    <path d="M11 25.094L18.531 2.5H3.47L11 25.094z" stroke-width="5" fill-rule="evenodd"/>
  </symbol>
  <symbol viewBox="0 0 46 24" id="slider-control">
    <g fill="none" fill-rule="evenodd">
      <rect width="46" height="24" fill="#393835" rx="12"/>
      <path d="M31.874 14.905l2.602-2.602-2.602-2.602a.607.607 0 01.858-.857l3.03 3.03a.607.607 0 010 .858l-3.03 3.03a.607.607 0 01-.858-.857zm-16.748 0l-2.602-2.602 2.602-2.602a.607.607 0 00-.858-.857l-3.03 3.03a.607.607 0 000 .858l3.03 3.03a.607.607 0 00.858-.857z" fill="#FFF" fill-rule="nonzero"/>
    </g>
  </symbol>

  <symbol viewBox="0 0 20 20" id="clock">
    <g fill="none">
      <circle cx="10.012" cy="9.998" r="9.951" fill="#FDB902"/>
      <path fill="#FD8C02" d="M1.778 9.998a8.234 8.234 0 0114.704-5.093c.348.133.607.311.75.538h1.629A9.963 9.963 0 0011.476.155c-.077-.011-.154-.022-.232-.031l-.092-.011a11.45 11.45 0 00-.26-.027L10.818.08a13.345 13.345 0 00-.282-.019h-.019a9.4 9.4 0 00-.505-.014C4.516.047.06 4.503.06 9.998c0 5.496 4.455 9.951 9.95 9.951.499 0 .988-.037 1.466-.107a9.92 9.92 0 01-5.325-2.57 8.23 8.23 0 01-4.374-7.274z"/>
      <circle cx="10.012" cy="9.998" r="8.537" fill="#FFDF40"/>
      <path fill="#FFBE40" d="M3.95 9.998c0-4.294 3.171-7.847 7.3-8.447a8.537 8.537 0 10-.001 16.894A8.538 8.538 0 013.95 9.998z"/>
      <path fill="#FD8C02" d="M14.937 9.443H11.15a1.316 1.316 0 00-.684-.656v-4.27a.48.48 0 00-.96 0v4.249a1.315 1.315 0 00.455 2.546c.035 0 .069-.002.102-.005h.016c.034-.004.067-.008.1-.014l.008-.001a1.314 1.314 0 00.987-.789h3.763a.53.53 0 100-1.06z"/>
      <circle cx="9.961" cy="9.998" r="1.313" fill="#FD8C02"/>
      <path d="M2.738 10.251h-.555a.253.253 0 010-.505h.555c.14 0 .253.114.253.253a.254.254 0 01-.253.252zm15.053 0h-.556a.253.253 0 010-.505h.556c.139 0 .253.114.253.253a.254.254 0 01-.253.252zM9.734 2.75v-.556a.253.253 0 01.505 0v.556a.253.253 0 01-.505 0zm0 15.053v-.556a.253.253 0 01.505 0v.556a.252.252 0 01-.505 0zM4.683 5.052l-.393-.393a.253.253 0 010-.357.252.252 0 01.357 0l.393.393a.253.253 0 010 .357.253.253 0 01-.357 0zm10.644 10.644l-.393-.393a.252.252 0 010-.357.252.252 0 01.357 0l.393.392a.255.255 0 010 .358.253.253 0 01-.357 0zM5.04 15.303l-.393.393a.253.253 0 01-.357 0 .255.255 0 010-.358l.393-.392a.252.252 0 01.357 0 .253.253 0 010 .357z" fill="#FFF"/>
    </g>
  </symbol>

  <symbol viewBox="0 0 17.879 19.875" id="user">
    <path d="M17.576 16.792v3.082H0v-3.082a8.788 8.788 0 0117.576 0z" fill="#fdbf00"/>
    <path d="M17.879 16.791v3.082H9V8a8.8 8.8 0 018.879 8.791z" fill="#ff9100"/>
    <path d="M14.164 5.474A5.468 5.468 0 118.528 0a5.476 5.476 0 015.636 5.474z" fill="#f6e1be"/>
    <path d="M14.164 5.474a5.477 5.477 0 01-5.465 5.474V0a5.478 5.478 0 015.465 5.474z" fill="#f1cea0"/>
  </symbol>

  <symbol viewBox="0 0 19 19" id="close">
    <path fill-rule="evenodd" d="M10.723 9.501l7.943 7.942a.864.864 0 11-1.222 1.222l-7.943-7.943-7.944 7.944a.864.864 0 11-1.222-1.222l7.944-7.943L.335 1.557A.865.865 0 011.557.335l7.944 7.944L17.444.336a.863.863 0 111.222 1.222l-7.943 7.943z"/>
  </symbol>

  <symbol viewBox="0 0 15 22" id="game-wheel-triangle">
    <path d="M7 5.677l4.757 14.27H2.244L7 5.677z" stroke-width="3.158" fill-rule="evenodd"/>
  </symbol>

  <symbol viewBox="0 0 83 40" id="crash-label">
    <path d="M65.458 1.5a8.5 8.5 0 016.997 3.675h0l6.896 10A8.493 8.493 0 0180.853 20c0 1.686-.5 3.373-1.502 4.825h0l-6.896 10a8.5 8.5 0 01-6.997 3.675h0H10.5a8.47 8.47 0 01-6.01-2.49A8.465 8.465 0 012 30h0V10a8.47 8.47 0 012.49-6.01A8.465 8.465 0 0110.5 1.5h0z" stroke-width="3" fill="#fff"/>
  </symbol>
  
  <symbol viewBox="0 0 70 36" id="r-fb">
    <g fill-rule="evenodd">
      <path d="M18 0h34c9.941 0 18 8.059 18 18s-8.059 18-18 18H18C8.059 36 0 27.941 0 18S8.059 0 18 0z"/>
      <path d="M38.28 11.347h1.84V8.142C39.802 8.098 38.71 8 37.439 8c-2.654 0-4.472 1.67-4.472 4.737v2.823H30.04v3.583h2.928v9.017h3.59v-9.016h2.81l.446-3.583h-3.257v-2.469c0-1.036.28-1.745 1.722-1.745z" fill="#FFF" fill-rule="nonzero"/>
    </g>
  </symbol>
  <symbol viewBox="0 0 70 36" id="r-g">
    <g fill-rule="evenodd">
      <path d="M18 0h34c9.941 0 18 8.059 18 18s-8.059 18-18 18H18C8.059 36 0 27.941 0 18S8.059 0 18 0z"/>
      <g fill-rule="nonzero">
        <path fill="#FBBD00" d="M29.688 18c0-.99.273-1.92.747-2.714v-3.371h-3.372C25.725 13.652 25 15.77 25 18s.725 4.348 2.063 6.085h3.372v-3.371A5.283 5.283 0 0129.688 18z"/>
        <path fill="#0F9D58" d="M35 23.313l-2.344 2.343L35 28c2.23 0 4.348-.725 6.085-2.063v-3.368h-3.367a5.313 5.313 0 01-2.718.743z"/>
        <path fill="#31AA52" d="M30.435 20.714l-3.372 3.371c.265.344.554.674.866.986A9.934 9.934 0 0035 28v-4.688a5.314 5.314 0 01-4.565-2.598z"/>
        <path fill="#3C79E6" d="M45 18c0-.608-.055-1.218-.164-1.812l-.088-.48H35v4.687h4.744a5.28 5.28 0 01-2.027 2.174l3.368 3.368c.344-.265.674-.554.986-.866A9.934 9.934 0 0045 18z"/>
        <path fill="#CF2D48" d="M38.757 14.243l.414.415 3.314-3.315-.414-.414A9.934 9.934 0 0035 8l-2.344 2.344L35 12.688a5.28 5.28 0 013.757 1.555z"/>
        <path fill="#EB4132" d="M35 12.688V8a9.934 9.934 0 00-7.071 2.929c-.312.312-.6.642-.866.986l3.372 3.371A5.314 5.314 0 0135 12.688z"/>
      </g>
    </g>
  </symbol>
  <symbol viewBox="0 0 70 36" id="r-vk">
    <g fill-rule="evenodd">
      <path d="M18 0h34c9.941 0 18 8.059 18 18s-8.059 18-18 18H18C8.059 36 0 27.941 0 18S8.059 0 18 0z"/>
      <path d="M41.924 19.225c-.35-.44-.25-.637 0-1.031.004-.005 2.887-3.988 3.184-5.339h.002c.147-.493 0-.855-.714-.855h-2.362c-.601 0-.878.31-1.027.658 0 0-1.202 2.878-2.903 4.744-.55.539-.803.712-1.103.712-.147 0-.377-.173-.377-.665v-4.595c0-.59-.168-.854-.666-.854h-3.713c-.377 0-.601.275-.601.532 0 .56.85.688.938 2.263v3.418c0 .748-.136.886-.437.886-.803 0-2.751-2.89-3.906-6.197-.233-.642-.46-.902-1.067-.902H24.81c-.674 0-.81.31-.81.659 0 .614.803 3.665 3.733 7.697 1.953 2.754 4.704 4.244 7.207 4.244 1.504 0 1.687-.331 1.687-.9 0-2.63-.136-2.88.617-2.88.35 0 .95.174 2.355 1.501 1.605 1.574 1.868 2.279 2.766 2.279h2.362c.673 0 1.014-.331.818-.985-.449-1.374-3.484-4.2-3.62-4.39z" fill="#FFF" fill-rule="nonzero"/>
    </g>
  </symbol>

  <symbol viewBox="0 0 36 36" id="circle-supp">
    <g fill="none" fill-rule="evenodd">
      <circle cx="18" cy="18" r="18" fill="#FFF"/>
      <g fill-rule="nonzero">
        <path fill="#F6D4B0" d="M26.964 17.624l-.057-.768.487-.487c2.153-2.152 2.153-5.67 0-7.805a5.525 5.525 0 00-7.805 0l-.487.487a5.025 5.025 0 00-.767-.056l.842-.843c2.377-2.377 6.252-2.395 8.629 0a6.113 6.113 0 010 8.63l-.842.842zM16.874 9.07l-.486-.487c-2.152-2.152-5.671-2.152-7.805 0-2.171 2.134-2.171 5.653 0 7.805l.487.487a5.023 5.023 0 00-.057.767l-.842-.842c-2.377-2.377-2.396-6.252 0-8.629a6.112 6.112 0 018.629 0l.842.843c-.262 0-.524.018-.767.056zm-7.88 9.265l.057.767-.487.487c-2.152 2.151-2.152 5.671-.018 7.805a5.523 5.523 0 007.805 0l.486-.487c.244.038.506.057.768.057l-.842.842c-2.378 2.377-6.252 2.396-8.63.019a6.097 6.097 0 01.02-8.63l.842-.86zm10.09 8.554l.486.486c2.153 2.153 5.671 2.153 7.805 0a5.507 5.507 0 00-.018-7.805l-.487-.487c.037-.243.056-.505.056-.767l.842.842c2.377 2.377 2.396 6.252.02 8.63a6.097 6.097 0 01-8.63-.02l-.842-.842c.262.019.524 0 .767-.037z"/>
        <path fill="#FD8C02" d="M17.98 6C11.371 6 6 11.372 6 17.98c0 6.606 5.353 11.978 11.98 11.978 6.606 0 11.978-5.372 11.978-11.979C29.958 11.372 24.586 6 17.98 6zm0 17.969c-3.314 0-5.99-2.677-5.99-5.99s2.676-5.99 5.99-5.99c3.312 0 5.989 2.677 5.989 5.99s-2.677 5.99-5.99 5.99z"/>
        <path fill="#FFDF40" d="M17.98 10.548a7.438 7.438 0 00-7.432 7.431c0 4.1 3.332 7.431 7.431 7.431 4.1 0 7.431-3.332 7.431-7.43 0-4.1-3.332-7.432-7.43-7.432zm0 13.42a5.982 5.982 0 01-5.99-5.989 5.983 5.983 0 015.99-5.99c3.312 0 5.989 2.677 5.989 5.99s-2.677 5.99-5.99 5.99z"/>
        <path fill="#FFE6CC" d="M15.19 23.276a5.987 5.987 0 01-2.527-2.527L8.34 25.092c.71.954 1.553 1.815 2.527 2.527l4.323-4.343zm5.56-10.613a5.887 5.887 0 012.526 2.527l4.343-4.323a12.452 12.452 0 00-2.527-2.527l-4.343 4.323zM8.34 10.867l4.323 4.323a5.894 5.894 0 012.527-2.527L10.867 8.34a12.377 12.377 0 00-2.527 2.527zm19.279 14.225l-4.324-4.324a5.884 5.884 0 01-2.527 2.527l4.324 4.324a12.503 12.503 0 002.527-2.527z"/>
        <path fill="#FFFCEB" d="M21.816 11.615l-1.048 1.048a5.89 5.89 0 012.527 2.527l1.048-1.048a7.567 7.567 0 00-2.527-2.527zm-9.153 9.135l-1.048 1.067a7.595 7.595 0 002.527 2.527l1.048-1.048a6.247 6.247 0 01-2.527-2.546zm8.105 2.546l1.048 1.048a7.586 7.586 0 002.527-2.527l-1.048-1.048a6.31 6.31 0 01-2.527 2.527zM15.21 12.682l-1.068-1.067a7.774 7.774 0 00-2.527 2.527l1.048 1.048a6.09 6.09 0 012.546-2.508z"/>
        <path fill="#FFDF40" d="M30.53 14.174h-7.8c-1.018 0-1.85.833-1.85 1.85v5.241c0 1.018.832 1.85 1.85 1.85h4.682c.2 0 .35.187.304.383a7.829 7.829 0 01-.595 1.66c-.126.258.161.52.405.368.704-.436 1.707-1.166 2.551-2.197a.585.585 0 01.453-.214c1.018 0 1.85-.832 1.85-1.85v-5.241c0-1.017-.832-1.85-1.85-1.85z"/>
        <path fill="#FFA73C" d="M28.914 23.498a.312.312 0 00-.304-.383h-1.198c.2 0 .35.187.304.383a7.829 7.829 0 01-.595 1.66c-.126.258.161.52.405.368.27-.167.584-.378.917-.632.214-.48.366-.95.471-1.396z"/>
        <g fill="#FFB200" transform="translate(22.823 18.155)">
          <circle cx=".622" cy=".64" r="1"/>
          <circle cx="2.604" cy=".64" r="1"/>
          <circle cx="4.587" cy=".64" r="1"/>
          <circle cx="6.57" cy=".64" r="1"/>
        </g>
        <path fill="#FFA73C" d="M23.444 18.795c0-.227.124-.425.307-.531a.614.614 0 100 1.063.615.615 0 01-.307-.532zm1.983 0c0-.227.124-.425.307-.531a.614.614 0 100 1.063.615.615 0 01-.307-.532zm1.983 0c0-.227.123-.425.307-.531a.613.613 0 100 1.063.613.613 0 01-.307-.532zm1.983 0c0-.227.123-.425.307-.531a.613.613 0 100 1.063.613.613 0 01-.307-.532z" opacity=".4"/>
      </g>
    </g>
  </symbol>
  
</svg>