<svg xmlns="http://www.w3.org/2000/svg" xmlns:xlink="http://www.w3.org/1999/xlink" width="240" height="241" viewBox="0 0 240 241">
    <defs>
        <circle id="1j5us35w0a" cx="110.526" cy="110.526" r="110.526"/>
        <circle id="ufh1mkaced" cx="113.684" cy="113.677" r="44.211"/>
        <filter id="6gj2dj5h6c" width="313.8%" height="313.8%" x="-106.9%" y="-106.9%" filterUnits="objectBoundingBox">
            <feOffset in="SourceAlpha" result="shadowOffsetOuter1"/>
            <feGaussianBlur in="shadowOffsetOuter1" result="shadowBlurOuter1" stdDeviation="31.5"/>
            <feColorMatrix in="shadowBlurOuter1" values="0 0 0 0 1 0 0 0 0 1 0 0 0 0 1 0 0 0 1 0"/>
        </filter>
    </defs>
    <g fill="none" fill-rule="evenodd">
        <g>
            <g>
                <g>
                    <g transform="translate(-40 -343) translate(20 156) translate(0 44) translate(20 143.526)">
                        <circle cx="120" cy="120" r="120" fill="#F9F8F6"/>
                        <g>
                            <path fill="#44C64F" d="M112.421 119.155v108.207c-16.966-.185-33.04-4.086-47.446-10.928l47.446-97.28z" transform="translate(6.316 6.316)"/>
                            <path fill="#FFB200" d="M114.947 119.156l47.447 97.278c-14.764 7.011-31.279 10.934-48.71 10.934l1.263-.01V119.156z" transform="translate(6.316 6.316)"/>
                            <path fill="#FF413E" d="M110.15 118.048l-47.444 97.277c-14.725-7.4-27.62-17.905-37.826-30.656l85.27-66.621z" transform="translate(6.316 6.316)"/>
                            <path fill="#00ACFF" d="M117.424 118.472l82.532 69.251c-9.775 11.379-21.761 20.802-35.293 27.602l-47.239-96.853z" transform="translate(6.316 6.316)"/>
                            <path fill="#FF413E" d="M118.686 116.233l105.02 26.185c-4.2 16.13-11.855 30.866-22.125 43.37l-82.895-69.555z" transform="translate(6.316 6.316)"/>
                            <path fill="#00ACFF" d="M108.595 116.057l-85.272 66.622C13.51 169.847 6.369 154.864 2.73 138.56l105.865-22.503z" transform="translate(6.316 6.316)"/>
                            <path fill="#44C64F" d="M225.161 91.28c1.448 7.244 2.207 14.735 2.207 22.404 0 9.047-1.056 17.846-3.053 26.282l-105.017-26.184L225.161 91.28zM3.053 87.402l105.016 26.184L2.207 136.088c-1.33-6.65-2.078-13.51-2.192-20.524L0 113.684c0-9.046 1.057-17.846 3.053-26.282z" transform="translate(6.316 6.316)"/>
                            <path fill="#FFB200" d="M204.046 44.69c9.812 12.831 16.953 27.814 20.592 44.118l-105.864 22.503 85.272-66.621zM25.788 41.58l82.893 69.555L3.663 84.95c4.139-15.892 11.63-30.432 21.673-42.817l.452-.553z" transform="translate(6.316 6.316)"/>
                            <path fill="#00ACFF" d="M164.663 12.043c14.725 7.4 27.62 17.906 37.826 30.657l-85.271 66.62 47.445-97.277z" transform="translate(6.316 6.316)"/>
                            <path fill="#FF413E" d="M62.705 12.043l47.238 96.853-82.53-69.25C37.027 28.452 48.78 19.152 62.04 12.38l.664-.337z" transform="translate(6.316 6.316)"/>
                            <path fill="#44C64F" d="M112.421.01v108.203L64.975 10.934C79.207 4.175 95.066.287 111.805.015l.616-.005z" transform="translate(6.316 6.316)"/>
                            <path fill="#FF413E" d="M114.948.007c16.966.185 33.039 4.086 47.445 10.927l-47.446 97.278.001-108.205z" transform="translate(6.316 6.316)"/>
                        </g>
                        <g transform="translate(9.474 9.474)">
                            <mask id="91pqdnu3fb" fill="#fff">
                                <use xlink:href="#1j5us35w0a"/>
                            </mask>
                            <use fill="#FFF" xlink:href="#1j5us35w0a"/>
                            <g mask="url(#91pqdnu3fb)">
                                <g transform="translate(-3.158 -3.151)">
                                    <path fill="#F9F8F6" d="M114.947 119.15l47.447 97.277c-14.764 7.011-31.279 10.935-48.71 10.935l1.263-.011V119.149zm-2.526-.002v108.207c-16.966-.185-33.04-4.086-47.446-10.928l47.446-97.279zm-2.271-1.107l-47.444 97.277c-14.725-7.4-27.62-17.905-37.826-30.656l85.27-66.621zm7.274.424l82.532 69.251c-9.775 11.38-21.761 20.802-35.293 27.602l-47.239-96.853zm1.262-2.24l105.02 26.186c-4.2 16.13-11.855 30.866-22.125 43.371l-82.895-69.556zm-10.091-.175l-85.272 66.622C13.51 169.84 6.369 154.857 2.73 138.554l105.865-22.504zM225.16 91.274c1.448 7.243 2.207 14.734 2.207 22.403 0 9.047-1.056 17.846-3.053 26.282l-105.017-26.184 105.863-22.501zM3.053 87.395l105.016 26.184L2.207 136.08c-1.33-6.65-2.078-13.51-2.192-20.524L0 113.677c0-9.046 1.057-17.846 3.053-26.282zm200.993-42.712c9.812 12.831 16.953 27.814 20.592 44.118l-105.864 22.503 85.272-66.621zm-178.258-3.11l82.893 69.555L3.663 84.944c4.139-15.893 11.63-30.432 21.673-42.818l.452-.553zm138.875-29.536c14.725 7.4 27.62 17.905 37.826 30.656l-85.271 66.62 47.445-97.276zm-101.958 0l47.238 96.852-82.53-69.25C37.027 28.445 48.78 19.145 62.04 12.372l.664-.336zM112.42.003v108.204l-47.446-97.28C79.207 4.17 95.066.28 111.805.008l.616-.005zM114.948 0c16.966.185 33.039 4.086 47.445 10.927l-47.446 97.278L114.948 0z"/>
                                    <use fill="#000" filter="url(#6gj2dj5h6c)" xlink:href="#ufh1mkaced"/>
                                </g>
                            </g>
                        </g>
                        <g transform="translate(86.526 86.526)">
                            <circle cx="33.474" cy="33.474" r="33.474" fill="#FFB200"/>
                            <circle cx="33.789" cy="33.789" r="29.368" fill="#FFF"/>
                            <circle cx="33.474" cy="33.474" r="21.789" stroke="#FFB200" stroke-width=".632" opacity=".1"/>
                            <circle cx="33.474" cy="33.474" r="14.211" stroke="#FFB200" stroke-width=".632" opacity=".6"/>
                            <g fill-rule="nonzero" transform="translate(25.263 25.263)">
                                <circle cx="8.211" cy="8.211" r="8.211" fill="#FFE14D"/>
                                <path fill="#FB3" d="M16.421 8.21c0-4.527-3.683-8.21-8.21-8.21v16.421c4.527 0 8.21-3.683 8.21-8.21z"/>
                                <path fill="#FDB902" d="M8.21 14.465c-3.448 0-6.254-2.806-6.254-6.254 0-3.449 2.806-6.255 6.255-6.255 3.448 0 6.254 2.806 6.254 6.255 0 3.448-2.806 6.254-6.254 6.254z"/>
                                <path fill="#FD8C02" d="M14.465 8.21c0-3.448-2.806-6.254-6.254-6.254v12.509c3.448 0 6.254-2.806 6.254-6.254z"/>
                            </g>
                        </g>
                    </g>
                </g>
            </g>
        </g>
    </g>
</svg>